<svg width="349" height="664" viewBox="0 0 349 664" fill="none" xmlns="http://www.w3.org/2000/svg">
<path d="M28.5616 0H-2.88037V180.438H28.5616V0Z" fill="#10A0DE" fill-opacity="0.05"/>
<path d="M28.5616 483.898H-2.88037V663.731H28.5616V483.898Z" fill="#10A0DE" fill-opacity="0.05"/>
<path d="M183.455 308.162V339.115H348.206V308.162H183.455Z" fill="#10A0DE" fill-opacity="0.05"/>
<path d="M265.937 379.681C255.15 426.569 231.1 469.493 196.569 503.488C162.037 537.483 118.436 561.159 70.8076 571.779V600.195C125.981 589.082 176.623 562.259 216.445 523.055C256.267 483.852 283.514 433.997 294.802 379.681H265.937Z" fill="#10A0DE" fill-opacity="0.05"/>
<path d="M266.623 267.573C255.836 220.685 231.786 177.761 197.254 143.766C162.723 109.771 119.122 86.0947 71.4932 75.4753V47.1517C126.658 58.2729 177.29 85.1001 217.103 124.303C256.916 163.505 284.155 213.356 295.441 267.666L266.623 267.573Z" fill="#10A0DE" fill-opacity="0.05"/>
</svg>
