<svg width="675" height="664" viewBox="0 0 675 664" fill="none" xmlns="http://www.w3.org/2000/svg">
<path d="M354.562 0H323.12V180.438H354.562V0Z" fill="#10A0DE" fill-opacity="0.05"/>
<path d="M354.562 483.898H323.12V663.731H354.562V483.898Z" fill="#10A0DE" fill-opacity="0.05"/>
<path d="M0 308.162L0 339.115H168.439V308.162H0Z" fill="#10A0DE" fill-opacity="0.05"/>
<path d="M509.455 308.162V339.115H674.206V308.162H509.455Z" fill="#10A0DE" fill-opacity="0.05"/>
<path d="M87.7776 379.681H58.9834C70.2685 433.991 97.5084 483.842 137.321 523.044C177.134 562.247 227.766 589.074 282.931 600.195V571.802C235.295 561.184 191.686 537.506 157.15 503.507C122.614 469.507 98.5625 426.576 87.7776 379.681V379.681Z" fill="#10A0DE" fill-opacity="0.05"/>
<path d="M591.937 379.681C581.15 426.569 557.1 469.493 522.569 503.488C488.037 537.483 444.436 561.159 396.808 571.779V600.195C451.981 589.082 502.623 562.259 542.445 523.055C582.267 483.852 609.514 433.997 620.802 379.681H591.937Z" fill="#10A0DE" fill-opacity="0.05"/>
<path d="M88.4632 267.573H59.6689C70.9706 213.28 98.2179 163.449 138.029 124.264C177.841 85.0797 228.464 58.2663 283.616 47.1517V75.5684C235.996 86.1768 192.398 109.838 157.863 143.815C123.329 177.793 99.2679 220.699 88.4632 267.573V267.573Z" fill="#10A0DE" fill-opacity="0.05"/>
<path d="M592.623 267.573C581.836 220.685 557.786 177.761 523.254 143.766C488.723 109.771 445.122 86.0947 397.493 75.4753V47.1517C452.658 58.2729 503.29 85.1001 543.103 124.303C582.916 163.505 610.155 213.356 621.441 267.666L592.623 267.573Z" fill="#10A0DE" fill-opacity="0.05"/>
</svg>
