<svg width="144" height="144" viewBox="0 0 144 144" fill="none" xmlns="http://www.w3.org/2000/svg">
<g clip-path="url(#clip0)">
<path d="M130.448 19.9177L124.08 13.5502C122.169 11.6389 119.628 10.5864 116.925 10.5864C114.221 10.5864 111.68 11.6389 109.769 13.5502L87.445 35.8739C86.3676 36.9514 86.3676 38.6985 87.445 39.7757C88.5225 40.8531 90.2696 40.8531 91.3468 39.7757L103.181 27.941L116.057 40.8166L47.5219 109.352L34.6463 96.476L84.844 46.2782C85.9215 45.2007 85.9215 43.4541 84.844 42.3764C83.7666 41.2986 82.0195 41.2989 80.9423 42.3764L28.794 94.5252C28.5094 94.8098 28.2909 95.1532 28.1528 95.531L18.5205 121.94C18.1526 122.948 18.4027 124.078 19.1618 124.836C19.6886 125.363 20.3937 125.645 21.1131 125.645C21.4303 125.645 21.7498 125.59 22.0581 125.478L48.4677 115.846C48.8455 115.708 49.1889 115.489 49.4732 115.204L130.448 34.2291C134.394 30.2832 134.394 23.8631 130.448 19.9177ZM25.7354 118.263L31.8537 101.487L42.5106 112.144L25.7354 118.263ZM126.546 30.3271L119.959 36.9142L107.084 24.0392L113.671 17.452C114.54 16.5827 115.695 16.1043 116.925 16.1043C118.154 16.1043 119.309 16.583 120.178 17.452L126.546 23.8195C127.415 24.6889 127.894 25.8442 127.894 27.0733C127.894 28.3024 127.416 29.4577 126.546 30.3271Z" fill="#183458"/>
<path d="M143.191 139.29L89.011 85.1061C87.9335 84.0286 86.1864 84.0286 85.1089 85.1061C84.0314 86.1835 84.0314 87.9301 85.1089 89.0081L134.579 138.482H117.985V135.881C117.985 134.357 116.75 133.122 115.226 133.122C113.702 133.122 112.467 134.357 112.467 135.881V138.482H101.737V135.881C101.737 134.357 100.502 133.122 98.9782 133.122C97.4544 133.122 96.2191 134.357 96.2191 135.881V138.482H85.4895V135.881C85.4895 134.357 84.2542 133.122 82.7304 133.122C81.2066 133.122 79.9713 134.357 79.9713 135.881V138.482H69.2419V135.881C69.2419 134.357 68.0067 133.122 66.4829 133.122C64.9591 133.122 63.7238 134.357 63.7238 135.881V138.482H52.9941V135.881C52.9941 134.357 51.7589 133.122 50.2351 133.122C48.7112 133.122 47.476 134.357 47.476 135.881V138.482H36.7466V135.881C36.7466 134.357 35.5113 133.122 33.9875 133.122C32.4637 133.122 31.2285 134.357 31.2285 135.881V138.482H20.4988V135.881C20.4988 134.357 19.2635 133.122 17.7397 133.122C16.2159 133.122 14.9807 134.357 14.9807 135.881V138.482H5.52081V9.42001L55.4989 59.3981C56.5764 60.4756 58.3235 60.4756 59.4004 59.3981C60.4779 58.3207 60.4779 56.5741 59.4004 55.4966L4.7125 0.808134C3.92387 0.0189469 2.73672 -0.21674 1.70594 0.209916C0.674873 0.637134 0.00268555 1.64317 0.00268555 2.75917V141.241C0.00268555 142.765 1.23794 144 2.76175 144H141.24C142.356 144 143.362 143.328 143.789 142.297C144.216 141.266 143.98 140.079 143.191 139.29Z" fill="#183458"/>
<path d="M44.5704 70.3212L25.6803 51.431C24.8908 50.6415 23.7045 50.4061 22.6737 50.8328C21.6426 51.26 20.9705 52.266 20.9705 53.3818V91.3682C20.9705 92.892 22.2057 94.1273 23.7295 94.1273C25.2533 94.1273 26.4886 92.892 26.4886 91.3682V60.0426L40.6689 74.2229C41.7464 75.3004 43.4935 75.3004 44.5707 74.2229C45.6479 73.1455 45.6479 71.3986 44.5704 70.3212Z" fill="#183458"/>
<path d="M92.5671 118.321L74.1809 99.9351C73.1034 98.8576 71.3563 98.8576 70.2791 99.9351C69.2017 101.013 69.2017 102.759 70.2791 103.837L83.9555 117.513H50.3751C48.851 117.513 47.6157 118.748 47.6157 120.272C47.6157 121.796 48.851 123.031 50.3748 123.031H90.6163C91.7323 123.031 92.7383 122.359 93.1653 121.328C93.5922 120.297 93.356 119.11 92.5671 118.321Z" fill="#183458"/>
</g>
<defs>
<clipPath id="clip0">
<rect width="144" height="144" fill="white"/>
</clipPath>
</defs>
</svg>
