<svg width="156" height="156" viewBox="0 0 156 156" fill="none" xmlns="http://www.w3.org/2000/svg">
<path d="M106.709 129.882H98.3678C92.7308 129.882 88.1446 125.296 88.1446 119.659V52.3168C88.1446 50.9402 87.0289 49.8245 85.652 49.8245C84.2751 49.8245 83.1596 50.9405 83.1596 52.3168V119.659C83.1596 128.044 89.9819 134.867 98.3678 134.867H106.709C109.951 134.867 112.588 137.504 112.588 140.746V145.186H43.411V140.746C43.411 137.504 46.0484 134.867 49.2903 134.867H57.6314C66.017 134.867 72.8399 128.044 72.8399 119.659V99.9419C72.8399 98.5653 71.7238 97.4496 70.3472 97.4496C68.9706 97.4496 67.8549 98.5656 67.8549 99.9419V119.659C67.8549 125.296 63.2687 129.882 57.6314 129.882H49.2903C43.2995 129.882 38.426 134.756 38.426 140.746V147.679C38.426 149.055 39.5421 150.171 40.9184 150.171H115.081C116.457 150.171 117.573 149.055 117.573 147.679V140.746C117.573 134.755 112.7 129.882 106.709 129.882Z" fill="#183458"/>
<path d="M153.508 84.3157H146.006L132.399 40.4705H145.098C146.475 40.4705 147.591 39.3545 147.591 37.9779V29.3034C147.591 27.9269 146.475 26.8111 145.098 26.8111H92.1527C91.1887 24.8215 89.8152 23.0665 88.1449 21.6512V15.9755C88.1449 10.3808 83.595 5.8291 78.0018 5.8291C75.2916 5.8291 72.7435 6.88454 70.8252 8.80285C68.91 10.7224 67.8554 13.2699 67.8554 15.9755V21.6518C66.1854 23.0671 64.8119 24.8215 63.8479 26.8114H42.2084C40.8318 26.8114 39.716 27.9275 39.716 29.3037C39.716 30.68 40.8321 31.7961 42.2084 31.7961H62.396C62.325 32.4018 62.2839 33.0167 62.2839 33.6413C62.2839 34.2656 62.3247 34.8801 62.396 35.4859H13.3974V31.7964H33.7036C35.0802 31.7964 36.1963 30.6803 36.1963 29.3041C36.1963 27.9278 35.0802 26.8117 33.7036 26.8117H10.9048C9.52819 26.8117 8.41242 27.9278 8.41242 29.3041V37.9785C8.41242 39.3551 9.52849 40.4708 10.9048 40.4708H23.6005L9.99466 84.3157H2.49234C1.11577 84.3157 0 85.4317 0 86.808C0 101.687 12.1049 113.792 26.984 113.792C41.8631 113.792 53.9681 101.687 53.9681 86.808C53.9681 85.4314 52.852 84.3157 51.4757 84.3157H43.974L30.3673 40.4708H63.8473C64.8113 42.4608 66.1848 44.2155 67.8551 45.631V91.4374C67.8551 92.814 68.9712 93.9298 70.3475 93.9298C71.7237 93.9298 72.8401 92.8137 72.8401 91.4374V48.4829C74.4577 49.0469 76.1929 49.3574 78.0003 49.3574C84.2202 49.3574 89.6071 45.7252 92.153 40.4708H125.633L112.026 84.316H104.525C103.148 84.316 102.032 85.4321 102.032 86.8083C102.032 101.687 114.137 113.792 129.016 113.792C136.366 113.792 143.236 110.89 148.362 105.62C149.322 104.634 149.299 103.055 148.313 102.096C147.325 101.136 145.748 101.158 144.788 102.145C140.61 106.441 135.009 108.807 129.017 108.807C117.729 108.807 108.4 100.262 107.158 89.3007H113.864H144.17H150.878C150.626 91.5493 150.031 93.7278 149.099 95.8027C148.536 97.0586 149.097 98.5336 150.353 99.097C151.608 99.6603 153.084 99.0994 153.647 97.8435C155.208 94.3634 156 90.6504 156 86.808C156 85.4317 154.884 84.3157 153.508 84.3157ZM48.8429 89.3007C47.601 100.262 38.2718 108.807 26.984 108.807C15.6963 108.807 6.36675 100.262 5.12545 89.3007H11.831H42.1377H48.8429ZM38.7544 84.3157H15.214L26.984 46.3879L38.7544 84.3157ZM72.8401 15.9755C72.8401 14.5989 73.3779 13.3022 74.352 12.326C75.3267 11.3513 76.6228 10.8141 78.0015 10.8141C80.8461 10.8141 83.1596 13.1294 83.1596 15.9755V18.7993C81.542 18.2354 79.8071 17.9249 78 17.9249C76.1929 17.9249 74.4574 18.2354 72.8398 18.7993V15.9755H72.8401ZM78.0003 44.3724C72.083 44.3724 67.2689 39.5586 67.2689 33.6413C67.2689 27.7239 72.083 22.9099 78.0003 22.9099C83.9176 22.9099 88.7314 27.7239 88.7314 33.6413C88.7311 39.5586 83.917 44.3724 78.0003 44.3724ZM93.6043 35.4859C93.6753 34.8804 93.7164 34.2656 93.7164 33.6413C93.7164 33.017 93.6756 32.4021 93.6043 31.7961H142.606V35.4856H93.6043V35.4859ZM117.246 84.3157L129.015 46.3879L140.785 84.3157H117.246Z" fill="#183458"/>
<path d="M78.0002 26.5771C74.1051 26.5771 70.936 29.7459 70.936 33.6413C70.936 37.5368 74.1048 40.7055 78.0002 40.7055C81.895 40.7055 85.0641 37.5368 85.0641 33.6413C85.0641 29.7459 81.8947 26.5771 78.0002 26.5771ZM78.0002 35.7202C76.854 35.7202 75.921 34.7876 75.921 33.641C75.921 32.4945 76.854 31.5618 78.0002 31.5618C79.1465 31.5618 80.0791 32.4945 80.0791 33.641C80.0788 34.7876 79.1465 35.7202 78.0002 35.7202Z" fill="#183458"/>
</svg>
