<svg width="58" height="58" viewBox="0 0 58 58" fill="none" xmlns="http://www.w3.org/2000/svg">
<path d="M30.2237 0H27.5413V15.6431H30.2237V0Z" fill="#183458"/>
<path d="M30.2237 17.5582H27.5413V39.9756H30.2237V17.5582Z" fill="#183458"/>
<path d="M30.2237 41.9489H27.5413V57.5392H30.2237V41.9489Z" fill="#183458"/>
<path d="M0 26.712L0 29.3974H14.3609V26.712H0Z" fill="#183458"/>
<path d="M43.4305 26.712V29.3974H57.4752V26.712H43.4305Z" fill="#183458"/>
<path d="M27.5466 26.712V29.3974H41.5913V26.712H27.5466Z" fill="#183458"/>
<path d="M7.4835 32.9111H5.01184C5.97415 37.6184 8.29605 41.9392 11.6894 45.3373C15.0827 48.7353 19.3981 51.061 24.1 52.0257V49.5618C20.0433 48.6384 16.3304 46.5848 13.3901 43.6385C10.4498 40.6921 8.40209 36.9731 7.4835 32.9111V32.9111Z" fill="#183458"/>
<path d="M50.4608 32.9111C49.5409 36.9751 47.4909 40.6955 44.5476 43.6421C41.6043 46.5887 37.888 48.641 33.8285 49.5618V52.0257C38.5306 51.0617 42.8463 48.7362 46.2398 45.338C49.6332 41.9399 51.9549 37.6187 52.9166 32.9111H50.4608Z" fill="#183458"/>
<path d="M7.54142 23.1929H5.08557C6.04788 18.4856 8.36979 14.1648 11.7631 10.7667C15.1565 7.36866 19.4719 5.04299 24.1737 4.07831V6.54215C20.1142 7.46298 16.3979 9.51534 13.4546 12.4619C10.5113 15.4085 8.46123 19.1289 7.54142 23.1929V23.1929Z" fill="#183458"/>
<path d="M50.5187 23.1929C49.5989 19.1289 47.5488 15.4085 44.6055 12.4619C41.6622 9.51534 37.9459 7.46298 33.8864 6.54215V4.07831C38.5876 5.04327 42.9021 7.36915 46.2946 10.7672C49.687 14.1653 52.0079 18.486 52.9692 23.1929H50.5187Z" fill="#183458"/>
<path d="M16.1527 17.5582V39.9756H41.6229V17.5582H16.1527ZM38.9088 37.6067H18.8826V19.9482H38.9088V37.6067Z" fill="#183458"/>
<path d="M27.5466 19.9482H18.8668V37.5856H27.5466V19.9482Z" fill="#B3DFF2"/>
<path d="M38.9035 19.9536H30.1763V26.712H38.9035V19.9536Z" fill="#B3DFF2"/>
<path d="M38.9035 29.3974H30.2238V37.5909H38.9035V29.3974Z" fill="#B3DFF2"/>
</svg>
