<svg width="103" height="17" viewBox="0 0 103 17" fill="none" xmlns="http://www.w3.org/2000/svg">
<path d="M12.4437 10.0316C12.4441 10.3646 12.4195 10.6972 12.3701 11.0269H3.86634C3.95292 11.5794 4.23366 12.0865 4.66156 12.4633C5.09642 12.8008 5.64378 12.9741 6.20144 12.951C6.63075 12.9586 7.05541 12.8642 7.43794 12.6761C7.78811 12.5063 8.07897 12.2412 8.27452 11.9135H12.1817C11.8158 13.1231 11.0335 14.1763 9.96379 14.8994C8.86123 15.6438 7.54241 16.0318 6.19684 16.0078C5.09168 16.0176 4.00254 15.7527 3.03435 15.2386C2.10458 14.7475 1.3338 14.0179 0.807275 13.1305C0.264292 12.2146 -0.014275 11.1752 0.000563277 10.1202C0.000563277 8.43405 0.588168 7.03531 1.76338 5.924C2.93859 4.81269 4.41947 4.25778 6.20603 4.25926C7.07044 4.24927 7.92876 4.39978 8.73419 4.7026C9.47318 4.97576 10.1471 5.3905 10.7153 5.92178C11.2619 6.44728 11.694 7.07282 11.9863 7.76165C12.2938 8.48141 12.4493 9.25311 12.4437 10.0316ZM6.20603 7.22964C5.68737 7.21496 5.17903 7.37135 4.76499 7.67298C4.35505 7.99396 4.06659 8.43661 3.94449 8.93207H8.56641C8.2186 7.7986 7.43181 7.23112 6.20603 7.22964Z" fill="white"/>
<path d="M31.9749 12.3127H33.4941V15.6378H30.7982C29.5295 15.6378 28.5336 15.2876 27.8104 14.5871C27.0872 13.8866 26.7255 12.926 26.7255 11.7054V7.53796H24.6387V6.65128L29.7432 1.3999H30.5683V4.61856H35.6522V7.53796H30.6511V11.047C30.6415 11.2164 30.6677 11.3859 30.7281 11.5452C30.7886 11.7045 30.882 11.8502 31.0027 11.9736C31.1326 12.0906 31.2857 12.1809 31.4528 12.2392C31.6199 12.2975 31.7975 12.3225 31.9749 12.3127Z" fill="white"/>
<path d="M41.72 4.56965H42.7634V8.03658H41.235C40.5455 8.03658 40.0353 8.19618 39.725 8.51095C39.4147 8.82572 39.2654 9.33557 39.2654 10.0405V15.6421H35.3237V4.61842H37.9576L38.5667 5.84425C38.9342 5.4214 39.4005 5.08865 39.9273 4.87334C40.4981 4.65867 41.1074 4.55545 41.72 4.56965Z" fill="white"/>
<path d="M53.2945 4.60956H56.2295V15.6332H53.1911L52.8486 14.8552C51.8747 15.6159 50.6542 16.0216 49.4011 16.0012C48.3183 16.0184 47.25 15.7583 46.3053 15.2475C45.4042 14.757 44.6643 14.0318 44.1702 13.155C43.6518 12.2226 43.3892 11.178 43.4071 10.1203C43.4071 8.41342 43.9687 7.01321 45.0918 5.91963C46.2149 4.82606 47.6513 4.27927 49.4011 4.27927C50.6742 4.25564 51.9137 4.6733 52.8946 5.45634L53.2945 4.60956ZM48.0957 11.9247C48.5858 12.3853 49.2431 12.6431 49.9275 12.6431C50.6118 12.6431 51.2691 12.3853 51.7592 11.9247C51.9998 11.6882 52.1884 11.4072 52.3136 11.0987C52.4388 10.7901 52.4981 10.4603 52.4878 10.1292C52.4979 9.79831 52.4386 9.46891 52.3134 9.16074C52.1882 8.85257 51.9997 8.57199 51.7592 8.33584C51.2682 7.87675 50.6113 7.62002 49.9275 7.62002C49.2436 7.62002 48.5867 7.87675 48.0957 8.33584C47.8558 8.5731 47.6681 8.85462 47.5437 9.16352C47.4193 9.47243 47.3608 9.80237 47.3717 10.1336C47.3624 10.4636 47.4216 10.7921 47.5459 11.0997C47.6703 11.4073 47.8572 11.6878 48.0957 11.9247Z" fill="white"/>
<path d="M71.6874 4.61816H75.7071L72.0712 15.6418H68.8972L66.6357 10.7075L64.4224 15.6418H61.2507L57.5205 4.61816H61.6437L63.3697 10.4082L66.0772 4.65806H67.1321L69.9843 10.4592L71.6874 4.61816Z" fill="white"/>
<path d="M88.4857 10.0315C88.4857 10.3645 88.4619 10.697 88.4144 11.0268H79.9106C79.9978 11.5797 80.2794 12.0868 80.7081 12.4632C81.143 12.8008 81.6904 12.9741 82.248 12.9509C82.6766 12.9586 83.1005 12.8642 83.4822 12.676C83.8307 12.5055 84.1199 12.2405 84.3142 11.9135H88.2214C87.8561 13.1227 87.0746 14.1759 86.0058 14.8994C84.9878 15.5547 83.805 15.9322 82.5826 15.9919C81.3603 16.0516 80.144 15.7913 79.0625 15.2386C78.1328 14.7475 77.362 14.0179 76.8355 13.1305C76.2925 12.2146 76.0139 11.1751 76.0288 10.1202C76.0056 9.34118 76.1504 8.56602 76.4538 7.84373C76.7572 7.12144 77.2128 6.46773 77.7916 5.92397C78.9668 4.81414 80.45 4.25922 82.2411 4.25922C83.1055 4.24962 83.9637 4.40012 84.7693 4.70256C85.5033 4.96712 86.172 5.37639 86.7328 5.90426C87.2935 6.43212 87.734 7.06697 88.026 7.76827C88.3334 8.48581 88.4896 9.25516 88.4857 10.0315ZM82.2503 7.22961C81.7311 7.21583 81.2223 7.3721 80.807 7.67295C80.397 7.99097 80.1071 8.43033 79.9819 8.92317H84.6015C84.2522 7.7956 83.4684 7.23108 82.2503 7.22961Z" fill="white"/>
<path d="M96.9898 4.27921C98.7519 4.27921 100.194 4.82748 101.315 5.92401C102.437 7.02054 102.996 8.42445 102.993 10.1357C102.993 11.8485 102.434 13.2524 101.315 14.3475C100.197 15.4425 98.7549 15.9938 96.9898 16.0012C95.7309 16.0234 94.5063 15.6053 93.5423 14.8241L93.17 15.642H90.2695V0.641602H94.1537V5.03733C95.0059 4.53134 95.9892 4.26849 96.9898 4.27921ZM96.4635 12.6428C96.8048 12.6523 97.1444 12.5933 97.4609 12.4697C97.7774 12.3461 98.0639 12.1605 98.3022 11.9246C98.5418 11.6918 98.7302 11.4147 98.8562 11.11C98.9822 10.8053 99.0431 10.4792 99.0353 10.1513C99.0453 9.82044 98.9859 9.49108 98.8607 9.18293C98.7355 8.87477 98.5471 8.59417 98.3068 8.35795C97.8166 7.89731 97.1593 7.63951 96.475 7.63951C95.7906 7.63951 95.1334 7.89731 94.6432 8.35795C94.404 8.59476 94.2167 8.87557 94.0923 9.18365C93.9679 9.49173 93.9091 9.8208 93.9193 10.1513C93.9088 10.4811 93.9675 10.8096 94.0919 11.117C94.2163 11.4244 94.4038 11.7044 94.6432 11.9401C94.8812 12.1724 95.1663 12.3546 95.4807 12.4756C95.7951 12.5965 96.1321 12.6534 96.4704 12.6428H96.4635Z" fill="white"/>
<path d="M21.3383 9.39738L24.595 4.61816H20.3063L19.3755 6.11887L21.3383 9.39738Z" fill="white"/>
<path d="M21.352 10.2817L19.3433 13.7132L20.4511 15.6417H24.8546L21.352 10.2817Z" fill="white"/>
<path d="M18.0056 13.3365L18.0838 13.2057L18.571 12.3722L20.0466 9.8518L17.4701 5.54918L17.4793 5.54475L16.9277 4.61816H12.5885L16.1003 9.92052L12.3081 15.6418H16.6588L18.0056 13.3365Z" fill="#7FBD00"/>
</svg>
