<svg width="181" height="58" viewBox="0 0 181 58" fill="none" xmlns="http://www.w3.org/2000/svg">
<path d="M84.3682 15.775C84.3682 18.6592 83.518 20.9788 81.8175 22.734C80.1171 24.4891 77.7526 25.3684 74.7241 25.3719C71.8255 25.3719 69.5858 24.5612 68.0048 22.9397C66.4237 21.3183 65.628 19.1217 65.6174 16.3501C65.6174 13.4659 66.4712 11.1797 68.1787 9.49142C69.8862 7.80312 72.2507 6.95898 75.2722 6.95898C78.1707 6.95898 80.4105 7.7451 81.9915 9.31732C83.5725 10.8895 84.3647 13.0421 84.3682 15.775ZM69.8335 15.928C69.8335 18.5976 70.2832 20.6377 71.1826 22.0481C71.5928 22.7227 72.1766 23.2746 72.8728 23.6458C73.5691 24.0171 74.3523 24.1942 75.1404 24.1585C75.8884 24.205 76.6352 24.0511 77.304 23.7126C77.9727 23.3741 78.5393 22.8633 78.9454 22.2328C79.764 20.949 80.1733 18.9318 80.1733 16.1813C80.1733 13.5961 79.7394 11.6088 78.8716 10.2195C78.4525 9.54035 77.8571 8.98781 77.149 8.6208C76.4408 8.25378 75.6464 8.08607 74.8505 8.13552C73.0939 8.13552 71.8168 8.77918 71.0192 10.0665C70.2217 11.3538 69.8264 13.3077 69.8335 15.928Z" fill="#183458"/>
<path d="M92.4632 15.659H93.1273C93.5032 15.659 93.844 15.659 94.1497 15.659C94.4326 15.648 94.7128 15.5983 94.9823 15.5113C95.2311 15.4262 95.4591 15.2896 95.6516 15.1103C95.8821 14.8864 96.0743 14.6262 96.2208 14.3401C96.4327 13.9395 96.609 13.5211 96.7478 13.0897C96.9129 12.5867 97.0886 11.9712 97.2748 11.2431C97.4153 10.6522 97.5453 10.1457 97.6648 9.72363C97.7614 9.36643 97.8757 9.01427 98.0073 8.66844C98.095 8.42467 98.2213 8.19664 98.3815 7.99313C98.513 7.83476 98.6788 7.70847 98.8663 7.62382C99.0793 7.53382 99.3052 7.4786 99.5356 7.46027C99.7921 7.43565 100.1 7.42334 100.458 7.42334C101.698 7.42334 102.789 7.46907 103.731 7.56051L103.794 8.39938C102.97 8.36643 102.155 8.58143 101.454 9.01666C100.773 9.57121 100.232 10.2777 99.8729 11.0795C99.4705 11.8914 99.0236 12.6805 98.5343 13.4432C98.1027 14.1004 97.595 14.7043 97.0218 15.2422C97.7456 16.2974 98.3639 17.2664 98.8769 18.1493C99.3898 19.0321 99.8501 19.8393 100.258 20.5709C100.78 21.5784 101.416 22.5221 102.155 23.383C102.383 23.6321 102.656 23.8346 102.961 23.9792C103.329 24.1406 103.712 24.2643 104.105 24.3485L104.152 24.9869C103.189 25.0894 102.222 25.1387 101.254 25.1346C100.691 25.1493 100.129 25.0672 99.5936 24.8919C99.1561 24.7382 98.757 24.4917 98.4237 24.1691C98.0686 23.8149 97.7636 23.4137 97.5172 22.9767C97.2432 22.5019 96.9393 21.9479 96.6055 21.3148C96.2963 20.738 95.9801 20.1541 95.6569 19.5632C95.3337 18.9723 94.9823 18.3673 94.6029 17.7483L94.3025 17.3315C94.2322 17.2328 94.1509 17.1425 94.0601 17.0624C93.9814 16.9966 93.8898 16.9481 93.7913 16.92C93.6779 16.8897 93.5608 16.8755 93.4434 16.8778H92.4421V20.9824C92.4421 21.9673 92.4421 22.7886 92.4421 23.4463C92.4359 23.5462 92.4653 23.6451 92.5251 23.7253C92.585 23.8055 92.6714 23.8618 92.7689 23.8842L94.2181 24.3221L94.255 24.9499C93.2221 24.9253 92.0012 24.913 90.5924 24.913C89.1835 24.913 87.8835 24.9253 86.6925 24.9499L86.6978 24.3168L88.3737 23.8525C88.4651 23.8359 88.5482 23.7888 88.6094 23.7189C88.6707 23.6489 88.7065 23.5603 88.7109 23.4674C88.7109 22.7921 88.7109 21.962 88.7109 20.9772V11.0057C88.7109 10.1721 88.7109 9.47919 88.7109 8.92697C88.7153 8.83436 88.6879 8.74304 88.6332 8.66819C88.5786 8.59333 88.5 8.53943 88.4106 8.51545L86.6978 8.01424L86.6609 7.37585C87.8168 7.40751 89.0992 7.42334 90.508 7.42334C91.9169 7.42334 93.1466 7.40751 94.1971 7.37585L94.2709 8.01424L92.7847 8.44158C92.693 8.45773 92.61 8.50575 92.5502 8.57717C92.4905 8.64859 92.4578 8.73882 92.458 8.832C92.458 9.43345 92.458 10.1369 92.458 10.9424L92.4632 15.659Z" fill="#183458"/>
<path d="M111.182 16.3341V20.9717C111.182 21.9565 111.182 22.7778 111.182 23.4355C111.176 23.5354 111.205 23.6343 111.265 23.7146C111.325 23.7948 111.412 23.8511 111.509 23.8734L112.958 24.3113L112.995 24.9391C111.976 24.911 110.764 24.8969 109.359 24.8969C107.953 24.8969 106.654 24.9093 105.459 24.9339L105.396 24.306L107.072 23.8418C107.163 23.8252 107.246 23.7781 107.307 23.7081C107.369 23.6382 107.404 23.5495 107.409 23.4566C107.409 22.7813 107.409 21.9512 107.409 20.9664V11.0055C107.409 10.1719 107.409 9.47898 107.409 8.92677C107.413 8.83416 107.386 8.74284 107.331 8.66798C107.277 8.59312 107.198 8.53923 107.109 8.51525L105.433 8.02986L105.396 7.39148C106.552 7.42313 107.834 7.43896 109.243 7.43896C110.652 7.43896 111.881 7.42313 112.932 7.39148L113.006 8.02986L111.52 8.45721C111.428 8.47336 111.345 8.52137 111.285 8.59279C111.225 8.66421 111.193 8.75445 111.193 8.84762C111.193 9.44907 111.193 10.1525 111.193 10.958V15.0099H118.639V10.958C118.639 10.149 118.639 9.44556 118.639 8.84762C118.64 8.75445 118.607 8.66421 118.547 8.59279C118.487 8.52137 118.404 8.47336 118.313 8.45721L116.853 8.02986L116.816 7.39148C117.87 7.42313 119.119 7.43896 120.563 7.43896C122.007 7.43896 123.277 7.42313 124.373 7.39148L124.436 8.02986L122.739 8.51525C122.649 8.53975 122.57 8.59344 122.514 8.6679C122.458 8.74237 122.428 8.83341 122.429 8.92677C122.429 9.47898 122.429 10.1719 122.429 11.0055V20.9717C122.429 21.9565 122.429 22.7866 122.429 23.4619C122.437 23.5551 122.476 23.6431 122.538 23.7125C122.601 23.7819 122.685 23.8292 122.776 23.847L124.4 24.3113L124.436 24.9391C123.221 24.911 121.884 24.8969 120.426 24.8969C118.968 24.8969 117.765 24.9093 116.816 24.9339L116.753 24.306L118.249 23.8681C118.347 23.8458 118.433 23.7895 118.493 23.7093C118.553 23.6291 118.582 23.5302 118.576 23.4302C118.576 22.7725 118.576 21.9512 118.576 20.9664V16.3289L111.182 16.3341Z" fill="#183458"/>
<path d="M130.234 19.352L129.348 21.6892C129.173 22.1464 129.037 22.5157 128.942 22.7971C128.863 23.0032 128.815 23.2202 128.8 23.4408C128.796 23.4999 128.803 23.5594 128.822 23.6156C128.841 23.6718 128.871 23.7236 128.911 23.7679C129.01 23.8548 129.13 23.9147 129.259 23.942L130.46 24.2902L130.497 24.9391C129.288 24.9145 128.306 24.9022 127.551 24.9022C126.796 24.9022 125.893 24.9145 124.842 24.9391L124.779 24.3113L126.118 23.9103C126.397 23.8435 126.645 23.6812 126.819 23.4513C127.018 23.1455 127.186 22.8203 127.319 22.4806L133.543 7.30705L134.892 7.10657L140.278 22.317C140.405 22.7382 140.597 23.137 140.847 23.4988C141.041 23.7173 141.297 23.8718 141.58 23.942L142.803 24.306L142.839 24.9339C141.715 24.9093 140.582 24.8969 139.44 24.8969C137.933 24.8969 136.463 24.9093 135.029 24.9339L134.966 24.306L136.205 23.942C136.339 23.909 136.464 23.8438 136.568 23.7521C136.608 23.706 136.638 23.6524 136.657 23.5944C136.676 23.5364 136.684 23.4752 136.679 23.4144C136.668 23.1915 136.625 22.9712 136.552 22.7602C136.468 22.4894 136.347 22.1376 136.189 21.705L135.367 19.352H130.234ZM132.932 12.1714C132.781 12.6041 132.619 13.0543 132.447 13.5221L130.734 18.0383H134.908L133.369 13.5221C133.211 13.0543 133.065 12.6041 132.932 12.1714Z" fill="#183458"/>
<path d="M81.1325 34.515C82.2813 34.5467 83.3178 34.5625 84.2418 34.5625C85.0674 34.5625 86.0371 34.5467 87.1509 34.515L87.2246 35.1534L85.5119 35.6388C85.4224 35.6628 85.3438 35.7166 85.2892 35.7915C85.2345 35.8664 85.2071 35.9577 85.2115 36.0503C85.2115 36.6025 85.2115 37.2954 85.2115 38.129V48.111C85.2115 49.0959 85.2115 49.9259 85.2115 50.6013C85.2159 50.6942 85.2517 50.7828 85.313 50.8528C85.3742 50.9227 85.4573 50.9698 85.5488 50.9864L87.1719 51.4507L87.2246 52.0785C86.0336 52.0539 84.7126 52.0416 83.2616 52.0416C81.8105 52.0416 80.6318 52.0539 79.7253 52.0785L79.6621 51.4507L81.1008 51.0128C81.1968 50.9861 81.2804 50.9266 81.3371 50.8447C81.3939 50.7628 81.4203 50.6637 81.4118 50.5643C81.4364 49.9136 81.4487 49.0959 81.4487 48.111V40.0916C81.4487 39.659 81.461 38.8289 81.4855 37.6014C81.201 38.3049 80.9006 39.047 80.5844 39.8278L75.6305 52.0258L74.508 52.126L69.7649 40.2816C69.4804 39.6063 69.1888 38.8518 68.8901 38.0182C68.8901 39.2035 68.8901 39.9826 68.8901 40.3554V48.111C68.8901 49.0959 68.8901 49.9136 68.8901 50.5643C68.8834 50.6656 68.9124 50.766 68.9722 50.8479C69.0319 50.9299 69.1185 50.9883 69.2169 51.0128L70.5923 51.4507L70.6292 52.0785C69.6455 52.0539 68.7917 52.0416 68.068 52.0416C67.3442 52.0416 66.4079 52.0539 65.259 52.0785L65.1958 51.4507L66.8717 50.9864C66.9631 50.9698 67.0462 50.9227 67.1075 50.8528C67.1687 50.7828 67.2045 50.6942 67.209 50.6013C67.209 49.9259 67.209 49.0959 67.209 48.111V38.129C67.209 37.2954 67.209 36.6025 67.209 36.0503C67.2133 35.9577 67.1859 35.8664 67.1313 35.7915C67.0766 35.7166 66.998 35.6628 66.9086 35.6388L65.2327 35.1534L65.1958 34.515C66.5801 34.5467 67.6165 34.5625 68.3051 34.5625C69.2538 34.5625 70.2234 34.5467 71.2142 34.515L75.6305 45.5364C75.8202 46.0112 75.9959 46.4614 76.1575 46.887L76.6845 45.5364L81.1325 34.515Z" fill="#183458"/>
<path d="M93.0639 46.4703L92.1785 48.8075C92.0028 49.2647 91.8676 49.634 91.7727 49.9154C91.6929 50.1215 91.6449 50.3385 91.6304 50.5591C91.626 50.6182 91.6336 50.6777 91.6526 50.7339C91.6716 50.79 91.7017 50.8419 91.7411 50.8862C91.8402 50.9731 91.96 51.033 92.0889 51.0603L93.2905 51.4085L93.3274 52.0574C92.1188 52.0328 91.1368 52.0205 90.3814 52.0205C89.626 52.0205 88.7231 52.0328 87.6726 52.0574L87.6094 51.4296L88.948 51.0286C89.2277 50.9618 89.4756 50.7995 89.6489 50.5696C89.8481 50.2638 90.0159 49.9386 90.1495 49.5989L96.3734 34.4253L97.7226 34.2249L103.109 49.4353C103.236 49.8565 103.428 50.2553 103.678 50.6171C103.872 50.8356 104.127 50.9901 104.41 51.0603L105.633 51.4243L105.67 52.0522C104.546 52.0275 103.412 52.0152 102.271 52.0152C100.763 52.0152 99.293 52.0275 97.8596 52.0522L97.7964 51.4243L99.0348 51.0603C99.1696 51.0273 99.2943 50.9621 99.3984 50.8704C99.4384 50.8243 99.4687 50.7707 99.4877 50.7127C99.5067 50.6547 99.514 50.5935 99.5091 50.5327C99.4979 50.3098 99.4553 50.0895 99.3826 49.8785C99.2983 49.6077 99.1771 49.2559 99.019 48.8233L98.1969 46.4703H93.0639ZM95.7621 39.2897C95.6111 39.7224 95.4494 40.1726 95.2773 40.6404L93.5487 45.1724H97.7226L96.1837 40.6562C96.0362 40.1814 95.8956 39.7276 95.7621 39.295V39.2897Z" fill="#183458"/>
<path d="M112.315 48.111C112.315 49.0959 112.315 49.9013 112.315 50.5274C112.317 50.6213 112.35 50.712 112.409 50.7848C112.468 50.8576 112.551 50.9082 112.642 50.9284L114.481 51.456L114.518 52.0838C113.225 52.0592 111.876 52.0469 110.471 52.0469C109.066 52.0469 107.766 52.0592 106.571 52.0838L106.508 51.456L108.184 50.9917C108.275 50.9751 108.358 50.928 108.419 50.858C108.481 50.7881 108.517 50.6995 108.521 50.6066C108.521 49.9312 108.521 49.1012 108.521 48.1163V38.129C108.521 37.7104 108.521 37.3306 108.521 36.9894C108.521 36.6482 108.521 36.3352 108.521 36.0503C108.525 35.9577 108.498 35.8664 108.443 35.7915C108.389 35.7166 108.31 35.6628 108.221 35.6388L106.545 35.1534L106.508 34.515C107.674 34.5467 108.783 34.5625 109.833 34.5625H112.821C114.838 34.5625 116.937 34.5467 119.119 34.515L119.193 34.6153L118.318 39.4322L117.68 39.5324L116.679 35.8393H112.294L112.315 48.111Z" fill="#183458"/>
<path d="M126.75 43.4577V48.111C126.75 49.0959 126.75 49.9172 126.75 50.5749C126.744 50.6748 126.773 50.7737 126.833 50.8539C126.893 50.9342 126.979 50.9905 127.077 51.0128L128.526 51.4507L128.563 52.0785C127.53 52.0539 126.309 52.0416 124.9 52.0416C123.491 52.0416 122.191 52.0539 121 52.0785L120.937 51.4507L122.613 50.9864C122.704 50.9698 122.787 50.9227 122.849 50.8528C122.91 50.7828 122.946 50.6942 122.95 50.6013C122.95 49.926 122.95 49.0959 122.95 48.111V38.129C122.95 37.2954 122.95 36.6025 122.95 36.0503C122.955 35.9577 122.927 35.8664 122.872 35.7915C122.818 35.7166 122.739 35.6628 122.65 35.6388L120.974 35.1534L120.937 34.515C122.093 34.5467 123.375 34.5625 124.784 34.5625C126.193 34.5625 127.423 34.5467 128.473 34.515L128.547 35.1534L127.061 35.5807C126.969 35.5969 126.886 35.6449 126.826 35.7163C126.767 35.7877 126.734 35.878 126.734 35.9712C126.734 36.5726 126.734 37.2761 126.734 38.0815V42.1334H134.181V38.0868C134.181 37.2778 134.181 36.5744 134.181 35.9764C134.181 35.8833 134.148 35.793 134.088 35.7216C134.029 35.6502 133.946 35.6022 133.854 35.586L132.394 35.1587L132.357 34.5203C133.411 34.5519 134.66 34.5678 136.104 34.5678C137.548 34.5678 138.818 34.5519 139.915 34.5203L139.978 35.1587L138.281 35.6441C138.191 35.6686 138.111 35.7222 138.055 35.7967C137.999 35.8712 137.969 35.9622 137.97 36.0556C137.97 36.6078 137.97 37.3007 137.97 38.1343V48.111C137.97 49.0959 137.97 49.926 137.97 50.6013C137.978 50.6945 138.017 50.7824 138.08 50.8519C138.142 50.9213 138.226 50.9685 138.318 50.9864L139.941 51.4507L139.978 52.0785C138.787 52.0539 137.471 52.0416 136.03 52.0416C134.59 52.0416 133.387 52.0539 132.42 52.0785L132.357 51.4507L133.854 51.0128C133.951 50.9905 134.038 50.9342 134.098 50.8539C134.158 50.7737 134.187 50.6748 134.181 50.5749C134.181 49.9172 134.181 49.0959 134.181 48.111V43.4735L126.75 43.4577Z" fill="#183458"/>
<path d="M152.858 34.515C153.757 34.5467 154.678 34.5625 155.619 34.5625C156.561 34.5625 157.527 34.5467 158.518 34.515L158.581 35.1534L157.295 35.5174C157.138 35.5597 156.988 35.6274 156.852 35.7179C156.725 35.8068 156.615 35.9176 156.526 36.045C156.422 36.1913 156.332 36.3467 156.257 36.5093C156.173 36.6852 156.085 36.8856 155.993 37.1108C155.112 39.3196 154.233 41.5109 153.358 43.6845C152.484 45.8582 151.763 47.6485 151.198 49.0554C150.893 49.8997 150.528 50.7213 150.107 51.514C149.888 51.8855 149.606 52.2158 149.274 52.49C148.966 52.7419 148.606 52.9222 148.22 53.0176C147.758 53.1192 147.286 53.1635 146.813 53.1495C146.013 53.1508 145.214 53.0802 144.426 52.9385L144.378 52.2737L145.106 52.1366C145.614 52.0491 146.108 51.8948 146.576 51.6776C147.003 51.4753 147.397 51.2103 147.746 50.8914C148.115 50.5479 148.442 50.1619 148.721 49.7413C149.055 49.2335 149.356 48.7048 149.622 48.1585L148.921 47.9475L143.388 37.1266L143.045 36.4724C142.959 36.3087 142.859 36.1533 142.745 36.0081C142.648 35.8863 142.532 35.7812 142.402 35.6968C142.246 35.6047 142.077 35.5354 141.901 35.491L140.742 35.1534L140.705 34.5256C141.471 34.5572 142.701 34.573 144.394 34.573C145.852 34.573 147.258 34.5572 148.61 34.5256L148.673 35.1639L147.525 35.491C147.373 35.5201 147.232 35.5914 147.119 35.6968C147.037 35.798 146.996 35.9258 147.003 36.0556C147.018 36.3143 147.09 36.5664 147.214 36.7942L147.714 37.7808L150.412 43.1095C150.687 43.6441 150.966 44.2614 151.25 44.9613C151.767 43.776 152.243 42.6135 152.679 41.4739C153.114 40.3343 153.557 39.1666 154.007 37.9707C154.196 37.4607 154.34 37.0562 154.439 36.7573C154.52 36.528 154.568 36.2881 154.581 36.045C154.588 35.9774 154.578 35.9092 154.553 35.846C154.529 35.7828 154.489 35.7262 154.439 35.681C154.305 35.5887 154.155 35.5241 153.996 35.491L152.895 35.1903L152.858 34.515Z" fill="#183458"/>
<path d="M174.908 34.515C176.057 34.5467 177.093 34.5625 178.017 34.5625C178.843 34.5625 179.812 34.5467 180.926 34.515L181 35.1534L179.287 35.6388C179.198 35.6628 179.119 35.7166 179.065 35.7915C179.01 35.8664 178.982 35.9577 178.987 36.0503C178.987 36.6025 178.987 37.2954 178.987 38.129V48.111C178.987 49.0959 178.987 49.926 178.987 50.6013C178.991 50.6942 179.027 50.7828 179.088 50.8528C179.15 50.9227 179.233 50.9698 179.324 50.9864L180.947 51.4507L181 52.0785C179.809 52.0539 178.488 52.0416 177.037 52.0416C175.586 52.0416 174.407 52.0539 173.501 52.0785L173.437 51.4507L174.876 51.0128C174.972 50.9861 175.056 50.9266 175.112 50.8448C175.169 50.7629 175.196 50.6637 175.187 50.5643C175.212 49.9136 175.224 49.0959 175.224 48.111V40.0916C175.224 39.659 175.236 38.8289 175.261 37.6014C174.976 38.3049 174.676 39.047 174.36 39.8278L169.39 52.0205L168.268 52.1207L163.524 40.2763C163.24 39.601 162.948 38.8465 162.65 38.0129C162.65 39.1983 162.65 39.9773 162.65 40.3502V48.111C162.65 49.0959 162.65 49.9136 162.65 50.5643C162.643 50.6656 162.672 50.766 162.732 50.8479C162.791 50.9299 162.878 50.9883 162.976 51.0128L164.352 51.4507L164.389 52.0785C163.405 52.0539 162.551 52.0416 161.828 52.0416C161.104 52.0416 160.167 52.0539 159.019 52.0785L158.955 51.4507L160.631 50.9864C160.723 50.9698 160.806 50.9227 160.867 50.8528C160.928 50.7828 160.964 50.6942 160.968 50.6013C160.968 49.926 160.968 49.0959 160.968 48.111V38.129C160.968 37.2954 160.968 36.6025 160.968 36.0503C160.973 35.9577 160.945 35.8664 160.891 35.7915C160.836 35.7166 160.758 35.6628 160.668 35.6388L158.992 35.1534L158.955 34.515C160.34 34.5467 161.376 34.5625 162.065 34.5625C163.013 34.5625 163.983 34.5467 164.974 34.515L169.332 45.5364C169.522 46.0112 169.697 46.4614 169.859 46.887L170.386 45.5364L174.908 34.515Z" fill="#183458"/>
<path d="M30.2237 0H27.5413V15.6431H30.2237V0Z" fill="#183458"/>
<path d="M30.2237 17.5582H27.5413V39.9756H30.2237V17.5582Z" fill="#183458"/>
<path d="M30.2237 41.9489H27.5413V57.5392H30.2237V41.9489Z" fill="#183458"/>
<path d="M0 26.7119L0 29.3973H14.3609V26.7119H0Z" fill="#183458"/>
<path d="M43.4304 26.7119V29.3973H57.4751V26.7119H43.4304Z" fill="#183458"/>
<path d="M27.5466 26.7119V29.3973H41.5913V26.7119H27.5466Z" fill="#183458"/>
<path d="M7.48337 32.911H5.01172C5.97403 37.6184 8.29593 41.9392 11.6893 45.3372C15.0826 48.7353 19.398 51.061 24.0998 52.0256V49.5618C20.0432 48.6383 16.3303 46.5848 13.39 43.6384C10.4497 40.692 8.40197 36.973 7.48337 32.911Z" fill="#183458"/>
<path d="M50.4606 32.911C49.5408 36.9751 47.4908 40.6955 44.5475 43.642C41.6042 46.5886 37.8879 48.641 33.8284 49.5618V52.0256C38.5305 51.0616 42.8462 48.7361 46.2397 45.338C49.6331 41.9398 51.9548 37.6186 52.9165 32.911H50.4606Z" fill="#183458"/>
<path d="M7.54154 23.1929H5.08569C6.048 18.4855 8.36991 14.1647 11.7633 10.7667C15.1566 7.3686 19.472 5.04293 24.1738 4.07825V6.54209C20.1143 7.46292 16.398 9.51528 13.4547 12.4618C10.5114 15.4084 8.46135 19.1288 7.54154 23.1929Z" fill="#183458"/>
<path d="M50.5187 23.1929C49.5989 19.1288 47.5488 15.4084 44.6056 12.4618C41.6623 9.51528 37.946 7.46292 33.8865 6.54209V4.07825C38.5876 5.04321 42.9022 7.36909 46.2946 10.7672C49.6871 14.1653 52.008 18.4859 52.9693 23.1929H50.5187Z" fill="#183458"/>
<path d="M16.1528 17.5582V39.9756H41.623V17.5582H16.1528ZM38.9089 37.6067H18.8827V19.9482H38.9089V37.6067Z" fill="#183458"/>
<path d="M27.5465 19.9481H18.8667V37.5855H27.5465V19.9481Z" fill="#B3DFF2"/>
<path d="M38.9035 19.9536H30.1763V26.712H38.9035V19.9536Z" fill="#B3DFF2"/>
<path d="M38.9034 29.3973H30.2236V37.5908H38.9034V29.3973Z" fill="#B3DFF2"/>
</svg>
