<svg width="29" height="21" viewBox="0 0 29 21" fill="none" xmlns="http://www.w3.org/2000/svg">
<path d="M28.4765 0.454102H0.523357C0.234265 0.454102 0 0.688423 0 0.977459V20.0235C0 20.3125 0.234265 20.5468 0.523357 20.5468H22.5621C22.8512 20.5468 23.0854 20.3125 23.0854 20.0235C23.0854 19.7344 22.8512 19.5001 22.5621 19.5001H1.91807L11.4205 11.1958L14.1555 13.586C14.2541 13.6722 14.3771 13.7153 14.4999 13.7153C14.6229 13.7153 14.7457 13.6723 14.8444 13.586L17.5796 11.1956L27.0823 19.5001H24.5508C24.2617 19.5001 24.0275 19.7344 24.0275 20.0234C24.0275 20.3125 24.2617 20.5468 24.5508 20.5468H28.4765C28.7656 20.5468 28.9999 20.3125 28.9999 20.0234V0.977459C28.9999 0.688367 28.7656 0.454102 28.4765 0.454102ZM27.9532 18.8711L18.3749 10.5006L26.7817 3.1537C26.9993 2.9635 27.0215 2.63283 26.8314 2.41522C26.641 2.19755 26.3105 2.17529 26.0929 2.36555L14.4999 12.4968L7.92971 6.75489C7.71204 6.56475 7.3816 6.58695 7.19124 6.80457C7.00104 7.02224 7.0233 7.35285 7.24091 7.54305L10.6252 10.5007L1.04671 18.8715V2.12992L5.60961 6.11746C5.7089 6.20418 5.83164 6.24677 5.95387 6.24677C6.09966 6.24677 6.24472 6.18622 6.34814 6.06779C6.53834 5.85012 6.51608 5.51951 6.29847 5.32931L1.91762 1.50082H27.9532V18.8711Z" fill="white"/>
</svg>
