<svg width="360" height="7628" viewBox="0 0 360 7628" fill="none" xmlns="http://www.w3.org/2000/svg">
<rect x="180.183" y="1090" width="0.830206" height="169.362" fill="#E5E5E5" fill-opacity="0.75"/>
<rect x="89.3208" y="1090" width="0.830206" height="169.362" fill="#E5E5E5" fill-opacity="0.75"/>
<rect x="270.119" y="1090" width="0.830206" height="169.362" fill="#E5E5E5" fill-opacity="0.75"/>
<rect width="0.830206" height="7.47185" transform="matrix(1 0 0 -1 180.183 1269.32)" fill="#E5E5E5" fill-opacity="0.75"/>
<rect width="0.830206" height="7.47185" transform="matrix(0 -1 -1 0 184.334 1266)" fill="#E5E5E5" fill-opacity="0.75"/>
<rect width="0.830206" height="7.47185" transform="matrix(1 0 0 -1 89.3208 1269.32)" fill="#E5E5E5" fill-opacity="0.75"/>
<rect width="0.830206" height="7.47185" transform="matrix(0 -1 -1 0 93.4717 1266)" fill="#E5E5E5" fill-opacity="0.75"/>
<rect width="0.830206" height="7.47185" transform="matrix(1 0 0 -1 270.119 1269.32)" fill="#E5E5E5" fill-opacity="0.75"/>
<rect width="0.830206" height="7.47185" transform="matrix(0 -1 -1 0 274.27 1266)" fill="#E5E5E5" fill-opacity="0.75"/>
<rect x="180.247" y="1271" width="0.830206" height="169.362" fill="#E5E5E5" fill-opacity="0.75"/>
<rect x="89.3848" y="1271" width="0.830206" height="169.362" fill="#E5E5E5" fill-opacity="0.75"/>
<rect x="270.183" y="1271" width="0.830206" height="169.362" fill="#E5E5E5" fill-opacity="0.75"/>
<rect width="0.830206" height="7.47185" transform="matrix(1 0 0 -1 180.247 1450.32)" fill="#E5E5E5" fill-opacity="0.75"/>
<rect width="0.830206" height="7.47185" transform="matrix(0 -1 -1 0 184.398 1447)" fill="#E5E5E5" fill-opacity="0.75"/>
<rect width="0.830206" height="7.47185" transform="matrix(1 0 0 -1 89.3848 1450.32)" fill="#E5E5E5" fill-opacity="0.75"/>
<rect width="0.830206" height="7.47185" transform="matrix(0 -1 -1 0 93.5356 1447)" fill="#E5E5E5" fill-opacity="0.75"/>
<rect width="0.830206" height="7.47185" transform="matrix(1 0 0 -1 270.183 1450.32)" fill="#E5E5E5" fill-opacity="0.75"/>
<rect width="0.830206" height="7.47185" transform="matrix(0 -1 -1 0 274.334 1447)" fill="#E5E5E5" fill-opacity="0.75"/>
<rect x="180.247" y="1453" width="0.830206" height="169.362" fill="#E5E5E5" fill-opacity="0.75"/>
<rect x="89.3848" y="1453" width="0.830206" height="169.362" fill="#E5E5E5" fill-opacity="0.75"/>
<rect x="270.183" y="1453" width="0.830206" height="169.362" fill="#E5E5E5" fill-opacity="0.75"/>
<rect width="0.830206" height="7.47185" transform="matrix(1 0 0 -1 180.247 1632.32)" fill="#E5E5E5" fill-opacity="0.75"/>
<rect width="0.830206" height="7.47185" transform="matrix(0 -1 -1 0 184.398 1629)" fill="#E5E5E5" fill-opacity="0.75"/>
<rect width="0.830206" height="7.47185" transform="matrix(1 0 0 -1 89.3848 1632.32)" fill="#E5E5E5" fill-opacity="0.75"/>
<rect width="0.830206" height="7.47185" transform="matrix(0 -1 -1 0 93.5356 1629)" fill="#E5E5E5" fill-opacity="0.75"/>
<rect width="0.830206" height="7.47185" transform="matrix(1 0 0 -1 270.183 1632.32)" fill="#E5E5E5" fill-opacity="0.75"/>
<rect width="0.830206" height="7.47185" transform="matrix(0 -1 -1 0 274.334 1629)" fill="#E5E5E5" fill-opacity="0.75"/>
<rect x="180.183" y="1635" width="0.830206" height="169.362" fill="#E5E5E5" fill-opacity="0.75"/>
<rect x="89.3208" y="1635" width="0.830206" height="169.362" fill="#E5E5E5" fill-opacity="0.75"/>
<rect x="270.119" y="1635" width="0.830206" height="169.362" fill="#E5E5E5" fill-opacity="0.75"/>
<rect width="0.830206" height="7.47185" transform="matrix(1 0 0 -1 180.183 1814.32)" fill="#E5E5E5" fill-opacity="0.75"/>
<rect width="0.830206" height="7.47185" transform="matrix(0 -1 -1 0 184.334 1811)" fill="#E5E5E5" fill-opacity="0.75"/>
<rect width="0.830206" height="7.47185" transform="matrix(1 0 0 -1 89.3208 1814.32)" fill="#E5E5E5" fill-opacity="0.75"/>
<rect width="0.830206" height="7.47185" transform="matrix(0 -1 -1 0 93.4717 1811)" fill="#E5E5E5" fill-opacity="0.75"/>
<rect width="0.830206" height="7.47185" transform="matrix(1 0 0 -1 270.119 1814.32)" fill="#E5E5E5" fill-opacity="0.75"/>
<rect width="0.830206" height="7.47185" transform="matrix(0 -1 -1 0 274.27 1811)" fill="#E5E5E5" fill-opacity="0.75"/>
<rect x="180.247" y="1816" width="0.830206" height="169.362" fill="#E5E5E5" fill-opacity="0.75"/>
<rect x="89.3848" y="1816" width="0.830206" height="169.362" fill="#E5E5E5" fill-opacity="0.75"/>
<rect x="270.183" y="1816" width="0.830206" height="169.362" fill="#E5E5E5" fill-opacity="0.75"/>
<rect width="0.830206" height="7.47185" transform="matrix(1 0 0 -1 180.247 1995.32)" fill="#E5E5E5" fill-opacity="0.75"/>
<rect width="0.830206" height="7.47185" transform="matrix(0 -1 -1 0 184.398 1992)" fill="#E5E5E5" fill-opacity="0.75"/>
<rect width="0.830206" height="7.47185" transform="matrix(1 0 0 -1 89.3848 1995.32)" fill="#E5E5E5" fill-opacity="0.75"/>
<rect width="0.830206" height="7.47185" transform="matrix(0 -1 -1 0 93.5356 1992)" fill="#E5E5E5" fill-opacity="0.75"/>
<rect width="0.830206" height="7.47185" transform="matrix(1 0 0 -1 270.183 1995.32)" fill="#E5E5E5" fill-opacity="0.75"/>
<rect width="0.830206" height="7.47185" transform="matrix(0 -1 -1 0 274.334 1992)" fill="#E5E5E5" fill-opacity="0.75"/>
<rect x="180.247" y="1998" width="0.830206" height="169.362" fill="#E5E5E5" fill-opacity="0.75"/>
<rect x="89.3848" y="1998" width="0.830206" height="169.362" fill="#E5E5E5" fill-opacity="0.75"/>
<rect x="270.183" y="1998" width="0.830206" height="169.362" fill="#E5E5E5" fill-opacity="0.75"/>
<rect width="0.830206" height="7.47185" transform="matrix(1 0 0 -1 180.247 2177.32)" fill="#E5E5E5" fill-opacity="0.75"/>
<rect width="0.830206" height="7.47185" transform="matrix(0 -1 -1 0 184.398 2174)" fill="#E5E5E5" fill-opacity="0.75"/>
<rect width="0.830206" height="7.47185" transform="matrix(1 0 0 -1 89.3848 2177.32)" fill="#E5E5E5" fill-opacity="0.75"/>
<rect width="0.830206" height="7.47185" transform="matrix(0 -1 -1 0 93.5356 2174)" fill="#E5E5E5" fill-opacity="0.75"/>
<rect width="0.830206" height="7.47185" transform="matrix(1 0 0 -1 270.183 2177.32)" fill="#E5E5E5" fill-opacity="0.75"/>
<rect width="0.830206" height="7.47185" transform="matrix(0 -1 -1 0 274.334 2174)" fill="#E5E5E5" fill-opacity="0.75"/>
<rect x="180.183" y="2180" width="0.830206" height="169.362" fill="#E5E5E5" fill-opacity="0.75"/>
<rect x="89.3208" y="2180" width="0.830206" height="169.362" fill="#E5E5E5" fill-opacity="0.75"/>
<rect x="270.119" y="2180" width="0.830206" height="169.362" fill="#E5E5E5" fill-opacity="0.75"/>
<rect width="0.830206" height="7.47185" transform="matrix(1 0 0 -1 180.183 2359.32)" fill="#E5E5E5" fill-opacity="0.75"/>
<rect width="0.830206" height="7.47185" transform="matrix(0 -1 -1 0 184.334 2356)" fill="#E5E5E5" fill-opacity="0.75"/>
<rect width="0.830206" height="7.47185" transform="matrix(1 0 0 -1 89.3208 2359.32)" fill="#E5E5E5" fill-opacity="0.75"/>
<rect width="0.830206" height="7.47185" transform="matrix(0 -1 -1 0 93.4717 2356)" fill="#E5E5E5" fill-opacity="0.75"/>
<rect width="0.830206" height="7.47185" transform="matrix(1 0 0 -1 270.119 2359.32)" fill="#E5E5E5" fill-opacity="0.75"/>
<rect width="0.830206" height="7.47185" transform="matrix(0 -1 -1 0 274.27 2356)" fill="#E5E5E5" fill-opacity="0.75"/>
<rect x="180.247" y="2361" width="0.830206" height="169.362" fill="#E5E5E5" fill-opacity="0.75"/>
<rect x="89.3848" y="2361" width="0.830206" height="169.362" fill="#E5E5E5" fill-opacity="0.75"/>
<rect x="270.183" y="2361" width="0.830206" height="169.362" fill="#E5E5E5" fill-opacity="0.75"/>
<rect width="0.830206" height="7.47185" transform="matrix(1 0 0 -1 180.247 2540.32)" fill="#E5E5E5" fill-opacity="0.75"/>
<rect width="0.830206" height="7.47185" transform="matrix(0 -1 -1 0 184.398 2537)" fill="#E5E5E5" fill-opacity="0.75"/>
<rect width="0.830206" height="7.47185" transform="matrix(1 0 0 -1 89.3848 2540.32)" fill="#E5E5E5" fill-opacity="0.75"/>
<rect width="0.830206" height="7.47185" transform="matrix(0 -1 -1 0 93.5356 2537)" fill="#E5E5E5" fill-opacity="0.75"/>
<rect width="0.830206" height="7.47185" transform="matrix(1 0 0 -1 270.183 2540.32)" fill="#E5E5E5" fill-opacity="0.75"/>
<rect width="0.830206" height="7.47185" transform="matrix(0 -1 -1 0 274.334 2537)" fill="#E5E5E5" fill-opacity="0.75"/>
<rect x="180.247" y="2543" width="0.830206" height="169.362" fill="#E5E5E5" fill-opacity="0.75"/>
<rect x="89.3848" y="2543" width="0.830206" height="169.362" fill="#E5E5E5" fill-opacity="0.75"/>
<rect x="270.183" y="2543" width="0.830206" height="169.362" fill="#E5E5E5" fill-opacity="0.75"/>
<rect width="0.830206" height="7.47185" transform="matrix(1 0 0 -1 180.247 2722.32)" fill="#E5E5E5" fill-opacity="0.75"/>
<rect width="0.830206" height="7.47185" transform="matrix(0 -1 -1 0 184.398 2719)" fill="#E5E5E5" fill-opacity="0.75"/>
<rect width="0.830206" height="7.47185" transform="matrix(1 0 0 -1 89.3848 2722.32)" fill="#E5E5E5" fill-opacity="0.75"/>
<rect width="0.830206" height="7.47185" transform="matrix(0 -1 -1 0 93.5356 2719)" fill="#E5E5E5" fill-opacity="0.75"/>
<rect width="0.830206" height="7.47185" transform="matrix(1 0 0 -1 270.183 2722.32)" fill="#E5E5E5" fill-opacity="0.75"/>
<rect width="0.830206" height="7.47185" transform="matrix(0 -1 -1 0 274.334 2719)" fill="#E5E5E5" fill-opacity="0.75"/>
<rect x="180.183" y="2725" width="0.830206" height="169.362" fill="#E5E5E5" fill-opacity="0.75"/>
<rect x="89.3208" y="2725" width="0.830206" height="169.362" fill="#E5E5E5" fill-opacity="0.75"/>
<rect x="270.119" y="2725" width="0.830206" height="169.362" fill="#E5E5E5" fill-opacity="0.75"/>
<rect width="0.830206" height="7.47185" transform="matrix(1 0 0 -1 180.183 2904.32)" fill="#E5E5E5" fill-opacity="0.75"/>
<rect width="0.830206" height="7.47185" transform="matrix(0 -1 -1 0 184.334 2901)" fill="#E5E5E5" fill-opacity="0.75"/>
<rect width="0.830206" height="7.47185" transform="matrix(1 0 0 -1 89.3208 2904.32)" fill="#E5E5E5" fill-opacity="0.75"/>
<rect width="0.830206" height="7.47185" transform="matrix(0 -1 -1 0 93.4717 2901)" fill="#E5E5E5" fill-opacity="0.75"/>
<rect width="0.830206" height="7.47185" transform="matrix(1 0 0 -1 270.119 2904.32)" fill="#E5E5E5" fill-opacity="0.75"/>
<rect width="0.830206" height="7.47185" transform="matrix(0 -1 -1 0 274.27 2901)" fill="#E5E5E5" fill-opacity="0.75"/>
<rect x="180.247" y="2906" width="0.830206" height="169.362" fill="#E5E5E5" fill-opacity="0.75"/>
<rect x="89.3848" y="2906" width="0.830206" height="169.362" fill="#E5E5E5" fill-opacity="0.75"/>
<rect x="270.183" y="2906" width="0.830206" height="169.362" fill="#E5E5E5" fill-opacity="0.75"/>
<rect width="0.830206" height="7.47185" transform="matrix(1 0 0 -1 180.247 3085.32)" fill="#E5E5E5" fill-opacity="0.75"/>
<rect width="0.830206" height="7.47185" transform="matrix(0 -1 -1 0 184.398 3082)" fill="#E5E5E5" fill-opacity="0.75"/>
<rect width="0.830206" height="7.47185" transform="matrix(1 0 0 -1 89.3848 3085.32)" fill="#E5E5E5" fill-opacity="0.75"/>
<rect width="0.830206" height="7.47185" transform="matrix(0 -1 -1 0 93.5356 3082)" fill="#E5E5E5" fill-opacity="0.75"/>
<rect width="0.830206" height="7.47185" transform="matrix(1 0 0 -1 270.183 3085.32)" fill="#E5E5E5" fill-opacity="0.75"/>
<rect width="0.830206" height="7.47185" transform="matrix(0 -1 -1 0 274.334 3082)" fill="#E5E5E5" fill-opacity="0.75"/>
<rect x="180.247" y="3088" width="0.830206" height="169.362" fill="#E5E5E5" fill-opacity="0.75"/>
<rect x="89.3848" y="3088" width="0.830206" height="169.362" fill="#E5E5E5" fill-opacity="0.75"/>
<rect x="270.183" y="3088" width="0.830206" height="169.362" fill="#E5E5E5" fill-opacity="0.75"/>
<rect width="0.830206" height="7.47185" transform="matrix(1 0 0 -1 180.247 3267.32)" fill="#E5E5E5" fill-opacity="0.75"/>
<rect width="0.830206" height="7.47185" transform="matrix(0 -1 -1 0 184.398 3264)" fill="#E5E5E5" fill-opacity="0.75"/>
<rect width="0.830206" height="7.47185" transform="matrix(1 0 0 -1 89.3848 3267.32)" fill="#E5E5E5" fill-opacity="0.75"/>
<rect width="0.830206" height="7.47185" transform="matrix(0 -1 -1 0 93.5356 3264)" fill="#E5E5E5" fill-opacity="0.75"/>
<rect width="0.830206" height="7.47185" transform="matrix(1 0 0 -1 270.183 3267.32)" fill="#E5E5E5" fill-opacity="0.75"/>
<rect width="0.830206" height="7.47185" transform="matrix(0 -1 -1 0 274.334 3264)" fill="#E5E5E5" fill-opacity="0.75"/>
<rect x="180.183" y="3270" width="0.830206" height="169.362" fill="#E5E5E5" fill-opacity="0.75"/>
<rect x="89.3208" y="3270" width="0.830206" height="169.362" fill="#E5E5E5" fill-opacity="0.75"/>
<rect x="270.119" y="3270" width="0.830206" height="169.362" fill="#E5E5E5" fill-opacity="0.75"/>
<rect width="0.830206" height="7.47185" transform="matrix(1 0 0 -1 180.183 3449.32)" fill="#E5E5E5" fill-opacity="0.75"/>
<rect width="0.830206" height="7.47185" transform="matrix(0 -1 -1 0 184.334 3446)" fill="#E5E5E5" fill-opacity="0.75"/>
<rect width="0.830206" height="7.47185" transform="matrix(1 0 0 -1 89.3208 3449.32)" fill="#E5E5E5" fill-opacity="0.75"/>
<rect width="0.830206" height="7.47185" transform="matrix(0 -1 -1 0 93.4717 3446)" fill="#E5E5E5" fill-opacity="0.75"/>
<rect width="0.830206" height="7.47185" transform="matrix(1 0 0 -1 270.119 3449.32)" fill="#E5E5E5" fill-opacity="0.75"/>
<rect width="0.830206" height="7.47185" transform="matrix(0 -1 -1 0 274.27 3446)" fill="#E5E5E5" fill-opacity="0.75"/>
<rect x="180.247" y="3451" width="0.830206" height="169.362" fill="#E5E5E5" fill-opacity="0.75"/>
<rect x="89.3848" y="3451" width="0.830206" height="169.362" fill="#E5E5E5" fill-opacity="0.75"/>
<rect x="270.183" y="3451" width="0.830206" height="169.362" fill="#E5E5E5" fill-opacity="0.75"/>
<rect width="0.830206" height="7.47185" transform="matrix(1 0 0 -1 180.247 3630.32)" fill="#E5E5E5" fill-opacity="0.75"/>
<rect width="0.830206" height="7.47185" transform="matrix(0 -1 -1 0 184.398 3627)" fill="#E5E5E5" fill-opacity="0.75"/>
<rect width="0.830206" height="7.47185" transform="matrix(1 0 0 -1 89.3848 3630.32)" fill="#E5E5E5" fill-opacity="0.75"/>
<rect width="0.830206" height="7.47185" transform="matrix(0 -1 -1 0 93.5356 3627)" fill="#E5E5E5" fill-opacity="0.75"/>
<rect width="0.830206" height="7.47185" transform="matrix(1 0 0 -1 270.183 3630.32)" fill="#E5E5E5" fill-opacity="0.75"/>
<rect width="0.830206" height="7.47185" transform="matrix(0 -1 -1 0 274.334 3627)" fill="#E5E5E5" fill-opacity="0.75"/>
<rect x="180.247" y="3633" width="0.830206" height="169.362" fill="#E5E5E5" fill-opacity="0.75"/>
<rect x="89.3848" y="3633" width="0.830206" height="169.362" fill="#E5E5E5" fill-opacity="0.75"/>
<rect x="270.183" y="3633" width="0.830206" height="169.362" fill="#E5E5E5" fill-opacity="0.75"/>
<rect width="0.830206" height="7.47185" transform="matrix(1 0 0 -1 180.247 3812.32)" fill="#E5E5E5" fill-opacity="0.75"/>
<rect width="0.830206" height="7.47185" transform="matrix(0 -1 -1 0 184.398 3809)" fill="#E5E5E5" fill-opacity="0.75"/>
<rect width="0.830206" height="7.47185" transform="matrix(1 0 0 -1 89.3848 3812.32)" fill="#E5E5E5" fill-opacity="0.75"/>
<rect width="0.830206" height="7.47185" transform="matrix(0 -1 -1 0 93.5356 3809)" fill="#E5E5E5" fill-opacity="0.75"/>
<rect width="0.830206" height="7.47185" transform="matrix(1 0 0 -1 270.183 3812.32)" fill="#E5E5E5" fill-opacity="0.75"/>
<rect width="0.830206" height="7.47185" transform="matrix(0 -1 -1 0 274.334 3809)" fill="#E5E5E5" fill-opacity="0.75"/>
<rect x="180.183" y="3815" width="0.830206" height="169.362" fill="#E5E5E5" fill-opacity="0.75"/>
<rect x="89.3208" y="3815" width="0.830206" height="169.362" fill="#E5E5E5" fill-opacity="0.75"/>
<rect x="270.119" y="3815" width="0.830206" height="169.362" fill="#E5E5E5" fill-opacity="0.75"/>
<rect width="0.830206" height="7.47185" transform="matrix(1 0 0 -1 180.183 3994.32)" fill="#E5E5E5" fill-opacity="0.75"/>
<rect width="0.830206" height="7.47185" transform="matrix(0 -1 -1 0 184.334 3991)" fill="#E5E5E5" fill-opacity="0.75"/>
<rect width="0.830206" height="7.47185" transform="matrix(1 0 0 -1 89.3208 3994.32)" fill="#E5E5E5" fill-opacity="0.75"/>
<rect width="0.830206" height="7.47185" transform="matrix(0 -1 -1 0 93.4717 3991)" fill="#E5E5E5" fill-opacity="0.75"/>
<rect width="0.830206" height="7.47185" transform="matrix(1 0 0 -1 270.119 3994.32)" fill="#E5E5E5" fill-opacity="0.75"/>
<rect width="0.830206" height="7.47185" transform="matrix(0 -1 -1 0 274.27 3991)" fill="#E5E5E5" fill-opacity="0.75"/>
<rect x="180.247" y="3996" width="0.830206" height="169.362" fill="#E5E5E5" fill-opacity="0.75"/>
<rect x="89.3848" y="3996" width="0.830206" height="169.362" fill="#E5E5E5" fill-opacity="0.75"/>
<rect x="270.183" y="3996" width="0.830206" height="169.362" fill="#E5E5E5" fill-opacity="0.75"/>
<rect width="0.830206" height="7.47185" transform="matrix(1 0 0 -1 180.247 4175.32)" fill="#E5E5E5" fill-opacity="0.75"/>
<rect width="0.830206" height="7.47185" transform="matrix(0 -1 -1 0 184.398 4172)" fill="#E5E5E5" fill-opacity="0.75"/>
<rect width="0.830206" height="7.47185" transform="matrix(1 0 0 -1 89.3848 4175.32)" fill="#E5E5E5" fill-opacity="0.75"/>
<rect width="0.830206" height="7.47185" transform="matrix(0 -1 -1 0 93.5356 4172)" fill="#E5E5E5" fill-opacity="0.75"/>
<rect width="0.830206" height="7.47185" transform="matrix(1 0 0 -1 270.183 4175.32)" fill="#E5E5E5" fill-opacity="0.75"/>
<rect width="0.830206" height="7.47185" transform="matrix(0 -1 -1 0 274.334 4172)" fill="#E5E5E5" fill-opacity="0.75"/>
<rect x="180.247" y="4178" width="0.830206" height="169.362" fill="#E5E5E5" fill-opacity="0.75"/>
<rect x="89.3848" y="4178" width="0.830206" height="169.362" fill="#E5E5E5" fill-opacity="0.75"/>
<rect x="270.183" y="4178" width="0.830206" height="169.362" fill="#E5E5E5" fill-opacity="0.75"/>
<rect width="0.830206" height="7.47185" transform="matrix(1 0 0 -1 180.247 4357.32)" fill="#E5E5E5" fill-opacity="0.75"/>
<rect width="0.830206" height="7.47185" transform="matrix(0 -1 -1 0 184.398 4354)" fill="#E5E5E5" fill-opacity="0.75"/>
<rect width="0.830206" height="7.47185" transform="matrix(1 0 0 -1 89.3848 4357.32)" fill="#E5E5E5" fill-opacity="0.75"/>
<rect width="0.830206" height="7.47185" transform="matrix(0 -1 -1 0 93.5356 4354)" fill="#E5E5E5" fill-opacity="0.75"/>
<rect width="0.830206" height="7.47185" transform="matrix(1 0 0 -1 270.183 4357.32)" fill="#E5E5E5" fill-opacity="0.75"/>
<rect width="0.830206" height="7.47185" transform="matrix(0 -1 -1 0 274.334 4354)" fill="#E5E5E5" fill-opacity="0.75"/>
<rect x="180.183" y="4360" width="0.830206" height="169.362" fill="#E5E5E5" fill-opacity="0.75"/>
<rect x="89.3208" y="4360" width="0.830206" height="169.362" fill="#E5E5E5" fill-opacity="0.75"/>
<rect x="270.119" y="4360" width="0.830206" height="169.362" fill="#E5E5E5" fill-opacity="0.75"/>
<rect width="0.830206" height="7.47185" transform="matrix(1 0 0 -1 180.183 4539.32)" fill="#E5E5E5" fill-opacity="0.75"/>
<rect width="0.830206" height="7.47185" transform="matrix(0 -1 -1 0 184.334 4536)" fill="#E5E5E5" fill-opacity="0.75"/>
<rect width="0.830206" height="7.47185" transform="matrix(1 0 0 -1 89.3208 4539.32)" fill="#E5E5E5" fill-opacity="0.75"/>
<rect width="0.830206" height="7.47185" transform="matrix(0 -1 -1 0 93.4717 4536)" fill="#E5E5E5" fill-opacity="0.75"/>
<rect width="0.830206" height="7.47185" transform="matrix(1 0 0 -1 270.119 4539.32)" fill="#E5E5E5" fill-opacity="0.75"/>
<rect width="0.830206" height="7.47185" transform="matrix(0 -1 -1 0 274.27 4536)" fill="#E5E5E5" fill-opacity="0.75"/>
<rect x="180.247" y="4541" width="0.830206" height="169.362" fill="#E5E5E5" fill-opacity="0.75"/>
<rect x="89.3848" y="4541" width="0.830206" height="169.362" fill="#E5E5E5" fill-opacity="0.75"/>
<rect x="270.183" y="4541" width="0.830206" height="169.362" fill="#E5E5E5" fill-opacity="0.75"/>
<rect width="0.830206" height="7.47185" transform="matrix(1 0 0 -1 180.247 4720.32)" fill="#E5E5E5" fill-opacity="0.75"/>
<rect width="0.830206" height="7.47185" transform="matrix(0 -1 -1 0 184.398 4717)" fill="#E5E5E5" fill-opacity="0.75"/>
<rect width="0.830206" height="7.47185" transform="matrix(1 0 0 -1 89.3848 4720.32)" fill="#E5E5E5" fill-opacity="0.75"/>
<rect width="0.830206" height="7.47185" transform="matrix(0 -1 -1 0 93.5356 4717)" fill="#E5E5E5" fill-opacity="0.75"/>
<rect width="0.830206" height="7.47185" transform="matrix(1 0 0 -1 270.183 4720.32)" fill="#E5E5E5" fill-opacity="0.75"/>
<rect width="0.830206" height="7.47185" transform="matrix(0 -1 -1 0 274.334 4717)" fill="#E5E5E5" fill-opacity="0.75"/>
<rect x="180.247" y="4723" width="0.830206" height="169.362" fill="#E5E5E5" fill-opacity="0.75"/>
<rect x="89.3848" y="4723" width="0.830206" height="169.362" fill="#E5E5E5" fill-opacity="0.75"/>
<rect x="270.183" y="4723" width="0.830206" height="169.362" fill="#E5E5E5" fill-opacity="0.75"/>
<rect width="0.830206" height="7.47185" transform="matrix(1 0 0 -1 180.247 4902.32)" fill="#E5E5E5" fill-opacity="0.75"/>
<rect width="0.830206" height="7.47185" transform="matrix(0 -1 -1 0 184.398 4899)" fill="#E5E5E5" fill-opacity="0.75"/>
<rect width="0.830206" height="7.47185" transform="matrix(1 0 0 -1 89.3848 4902.32)" fill="#E5E5E5" fill-opacity="0.75"/>
<rect width="0.830206" height="7.47185" transform="matrix(0 -1 -1 0 93.5356 4899)" fill="#E5E5E5" fill-opacity="0.75"/>
<rect width="0.830206" height="7.47185" transform="matrix(1 0 0 -1 270.183 4902.32)" fill="#E5E5E5" fill-opacity="0.75"/>
<rect width="0.830206" height="7.47185" transform="matrix(0 -1 -1 0 274.334 4899)" fill="#E5E5E5" fill-opacity="0.75"/>
<rect x="180.183" y="4905" width="0.830206" height="169.362" fill="#E5E5E5" fill-opacity="0.75"/>
<rect x="89.3208" y="4905" width="0.830206" height="169.362" fill="#E5E5E5" fill-opacity="0.75"/>
<rect x="270.119" y="4905" width="0.830206" height="169.362" fill="#E5E5E5" fill-opacity="0.75"/>
<rect width="0.830206" height="7.47185" transform="matrix(1 0 0 -1 180.183 5084.32)" fill="#E5E5E5" fill-opacity="0.75"/>
<rect width="0.830206" height="7.47185" transform="matrix(0 -1 -1 0 184.334 5081)" fill="#E5E5E5" fill-opacity="0.75"/>
<rect width="0.830206" height="7.47185" transform="matrix(1 0 0 -1 89.3208 5084.32)" fill="#E5E5E5" fill-opacity="0.75"/>
<rect width="0.830206" height="7.47185" transform="matrix(0 -1 -1 0 93.4717 5081)" fill="#E5E5E5" fill-opacity="0.75"/>
<rect width="0.830206" height="7.47185" transform="matrix(1 0 0 -1 270.119 5084.32)" fill="#E5E5E5" fill-opacity="0.75"/>
<rect width="0.830206" height="7.47185" transform="matrix(0 -1 -1 0 274.27 5081)" fill="#E5E5E5" fill-opacity="0.75"/>
<rect x="180.247" y="5086" width="0.830206" height="169.362" fill="#E5E5E5" fill-opacity="0.75"/>
<rect x="89.3848" y="5086" width="0.830206" height="169.362" fill="#E5E5E5" fill-opacity="0.75"/>
<rect x="270.183" y="5086" width="0.830206" height="169.362" fill="#E5E5E5" fill-opacity="0.75"/>
<rect width="0.830206" height="7.47185" transform="matrix(1 0 0 -1 180.247 5265.32)" fill="#E5E5E5" fill-opacity="0.75"/>
<rect width="0.830206" height="7.47185" transform="matrix(0 -1 -1 0 184.398 5262)" fill="#E5E5E5" fill-opacity="0.75"/>
<rect width="0.830206" height="7.47185" transform="matrix(1 0 0 -1 89.3848 5265.32)" fill="#E5E5E5" fill-opacity="0.75"/>
<rect width="0.830206" height="7.47185" transform="matrix(0 -1 -1 0 93.5356 5262)" fill="#E5E5E5" fill-opacity="0.75"/>
<rect width="0.830206" height="7.47185" transform="matrix(1 0 0 -1 270.183 5265.32)" fill="#E5E5E5" fill-opacity="0.75"/>
<rect width="0.830206" height="7.47185" transform="matrix(0 -1 -1 0 274.334 5262)" fill="#E5E5E5" fill-opacity="0.75"/>
<rect x="180.247" y="5268" width="0.830206" height="169.362" fill="#E5E5E5" fill-opacity="0.75"/>
<rect x="89.3848" y="5268" width="0.830206" height="169.362" fill="#E5E5E5" fill-opacity="0.75"/>
<rect x="270.183" y="5268" width="0.830206" height="169.362" fill="#E5E5E5" fill-opacity="0.75"/>
<rect width="0.830206" height="7.47185" transform="matrix(1 0 0 -1 180.247 5447.32)" fill="#E5E5E5" fill-opacity="0.75"/>
<rect width="0.830206" height="7.47185" transform="matrix(0 -1 -1 0 184.398 5444)" fill="#E5E5E5" fill-opacity="0.75"/>
<rect width="0.830206" height="7.47185" transform="matrix(1 0 0 -1 89.3848 5447.32)" fill="#E5E5E5" fill-opacity="0.75"/>
<rect width="0.830206" height="7.47185" transform="matrix(0 -1 -1 0 93.5356 5444)" fill="#E5E5E5" fill-opacity="0.75"/>
<rect width="0.830206" height="7.47185" transform="matrix(1 0 0 -1 270.183 5447.32)" fill="#E5E5E5" fill-opacity="0.75"/>
<rect width="0.830206" height="7.47185" transform="matrix(0 -1 -1 0 274.334 5444)" fill="#E5E5E5" fill-opacity="0.75"/>
<rect x="180.183" y="5450" width="0.830206" height="169.362" fill="#E5E5E5" fill-opacity="0.75"/>
<rect x="89.3208" y="5450" width="0.830206" height="169.362" fill="#E5E5E5" fill-opacity="0.75"/>
<rect x="270.119" y="5450" width="0.830206" height="169.362" fill="#E5E5E5" fill-opacity="0.75"/>
<rect width="0.830206" height="7.47185" transform="matrix(1 0 0 -1 180.183 5629.32)" fill="#E5E5E5" fill-opacity="0.75"/>
<rect width="0.830206" height="7.47185" transform="matrix(0 -1 -1 0 184.334 5626)" fill="#E5E5E5" fill-opacity="0.75"/>
<rect width="0.830206" height="7.47185" transform="matrix(1 0 0 -1 89.3208 5629.32)" fill="#E5E5E5" fill-opacity="0.75"/>
<rect width="0.830206" height="7.47185" transform="matrix(0 -1 -1 0 93.4717 5626)" fill="#E5E5E5" fill-opacity="0.75"/>
<rect width="0.830206" height="7.47185" transform="matrix(1 0 0 -1 270.119 5629.32)" fill="#E5E5E5" fill-opacity="0.75"/>
<rect width="0.830206" height="7.47185" transform="matrix(0 -1 -1 0 274.27 5626)" fill="#E5E5E5" fill-opacity="0.75"/>
<rect x="180.247" y="5631" width="0.830206" height="169.362" fill="#E5E5E5" fill-opacity="0.75"/>
<rect x="89.3848" y="5631" width="0.830206" height="169.362" fill="#E5E5E5" fill-opacity="0.75"/>
<rect x="270.183" y="5631" width="0.830206" height="169.362" fill="#E5E5E5" fill-opacity="0.75"/>
<rect width="0.830206" height="7.47185" transform="matrix(1 0 0 -1 180.247 5810.32)" fill="#E5E5E5" fill-opacity="0.75"/>
<rect width="0.830206" height="7.47185" transform="matrix(0 -1 -1 0 184.398 5807)" fill="#E5E5E5" fill-opacity="0.75"/>
<rect width="0.830206" height="7.47185" transform="matrix(1 0 0 -1 89.3848 5810.32)" fill="#E5E5E5" fill-opacity="0.75"/>
<rect width="0.830206" height="7.47185" transform="matrix(0 -1 -1 0 93.5356 5807)" fill="#E5E5E5" fill-opacity="0.75"/>
<rect width="0.830206" height="7.47185" transform="matrix(1 0 0 -1 270.183 5810.32)" fill="#E5E5E5" fill-opacity="0.75"/>
<rect width="0.830206" height="7.47185" transform="matrix(0 -1 -1 0 274.334 5807)" fill="#E5E5E5" fill-opacity="0.75"/>
<rect x="180.247" y="5813" width="0.830206" height="169.362" fill="#E5E5E5" fill-opacity="0.75"/>
<rect x="89.3848" y="5813" width="0.830206" height="169.362" fill="#E5E5E5" fill-opacity="0.75"/>
<rect x="270.183" y="5813" width="0.830206" height="169.362" fill="#E5E5E5" fill-opacity="0.75"/>
<rect width="0.830206" height="7.47185" transform="matrix(1 0 0 -1 180.247 5992.32)" fill="#E5E5E5" fill-opacity="0.75"/>
<rect width="0.830206" height="7.47185" transform="matrix(0 -1 -1 0 184.398 5989)" fill="#E5E5E5" fill-opacity="0.75"/>
<rect width="0.830206" height="7.47185" transform="matrix(1 0 0 -1 89.3848 5992.32)" fill="#E5E5E5" fill-opacity="0.75"/>
<rect width="0.830206" height="7.47185" transform="matrix(0 -1 -1 0 93.5356 5989)" fill="#E5E5E5" fill-opacity="0.75"/>
<rect width="0.830206" height="7.47185" transform="matrix(1 0 0 -1 270.183 5992.32)" fill="#E5E5E5" fill-opacity="0.75"/>
<rect width="0.830206" height="7.47185" transform="matrix(0 -1 -1 0 274.334 5989)" fill="#E5E5E5" fill-opacity="0.75"/>
<rect x="180.183" y="5995" width="0.830206" height="169.362" fill="#E5E5E5" fill-opacity="0.75"/>
<rect x="89.3208" y="5995" width="0.830206" height="169.362" fill="#E5E5E5" fill-opacity="0.75"/>
<rect x="270.119" y="5995" width="0.830206" height="169.362" fill="#E5E5E5" fill-opacity="0.75"/>
<rect width="0.830206" height="7.47185" transform="matrix(1 0 0 -1 180.183 6174.32)" fill="#E5E5E5" fill-opacity="0.75"/>
<rect width="0.830206" height="7.47185" transform="matrix(0 -1 -1 0 184.334 6171)" fill="#E5E5E5" fill-opacity="0.75"/>
<rect width="0.830206" height="7.47185" transform="matrix(1 0 0 -1 89.3208 6174.32)" fill="#E5E5E5" fill-opacity="0.75"/>
<rect width="0.830206" height="7.47185" transform="matrix(0 -1 -1 0 93.4717 6171)" fill="#E5E5E5" fill-opacity="0.75"/>
<rect width="0.830206" height="7.47185" transform="matrix(1 0 0 -1 270.119 6174.32)" fill="#E5E5E5" fill-opacity="0.75"/>
<rect width="0.830206" height="7.47185" transform="matrix(0 -1 -1 0 274.27 6171)" fill="#E5E5E5" fill-opacity="0.75"/>
<rect x="180.247" y="6176" width="0.830206" height="169.362" fill="#E5E5E5" fill-opacity="0.75"/>
<rect x="89.3848" y="6176" width="0.830206" height="169.362" fill="#E5E5E5" fill-opacity="0.75"/>
<rect x="270.183" y="6176" width="0.830206" height="169.362" fill="#E5E5E5" fill-opacity="0.75"/>
<rect width="0.830206" height="7.47185" transform="matrix(1 0 0 -1 180.247 6355.32)" fill="#E5E5E5" fill-opacity="0.75"/>
<rect width="0.830206" height="7.47185" transform="matrix(0 -1 -1 0 184.398 6352)" fill="#E5E5E5" fill-opacity="0.75"/>
<rect width="0.830206" height="7.47185" transform="matrix(1 0 0 -1 89.3848 6355.32)" fill="#E5E5E5" fill-opacity="0.75"/>
<rect width="0.830206" height="7.47185" transform="matrix(0 -1 -1 0 93.5356 6352)" fill="#E5E5E5" fill-opacity="0.75"/>
<rect width="0.830206" height="7.47185" transform="matrix(1 0 0 -1 270.183 6355.32)" fill="#E5E5E5" fill-opacity="0.75"/>
<rect width="0.830206" height="7.47185" transform="matrix(0 -1 -1 0 274.334 6352)" fill="#E5E5E5" fill-opacity="0.75"/>
<rect x="180.247" y="6358" width="0.830206" height="169.362" fill="#E5E5E5" fill-opacity="0.75"/>
<rect x="89.3848" y="6358" width="0.830206" height="169.362" fill="#E5E5E5" fill-opacity="0.75"/>
<rect x="270.183" y="6358" width="0.830206" height="169.362" fill="#E5E5E5" fill-opacity="0.75"/>
<rect width="0.830206" height="7.47185" transform="matrix(1 0 0 -1 180.247 6537.32)" fill="#E5E5E5" fill-opacity="0.75"/>
<rect width="0.830206" height="7.47185" transform="matrix(0 -1 -1 0 184.398 6534)" fill="#E5E5E5" fill-opacity="0.75"/>
<rect width="0.830206" height="7.47185" transform="matrix(1 0 0 -1 89.3848 6537.32)" fill="#E5E5E5" fill-opacity="0.75"/>
<rect width="0.830206" height="7.47185" transform="matrix(0 -1 -1 0 93.5356 6534)" fill="#E5E5E5" fill-opacity="0.75"/>
<rect width="0.830206" height="7.47185" transform="matrix(1 0 0 -1 270.183 6537.32)" fill="#E5E5E5" fill-opacity="0.75"/>
<rect width="0.830206" height="7.47185" transform="matrix(0 -1 -1 0 274.334 6534)" fill="#E5E5E5" fill-opacity="0.75"/>
<rect x="180.183" y="6540" width="0.830206" height="169.362" fill="#E5E5E5" fill-opacity="0.75"/>
<rect x="89.3208" y="6540" width="0.830206" height="169.362" fill="#E5E5E5" fill-opacity="0.75"/>
<rect x="270.119" y="6540" width="0.830206" height="169.362" fill="#E5E5E5" fill-opacity="0.75"/>
<rect width="0.830206" height="7.47185" transform="matrix(1 0 0 -1 180.183 6719.32)" fill="#E5E5E5" fill-opacity="0.75"/>
<rect width="0.830206" height="7.47185" transform="matrix(0 -1 -1 0 184.334 6716)" fill="#E5E5E5" fill-opacity="0.75"/>
<rect width="0.830206" height="7.47185" transform="matrix(1 0 0 -1 89.3208 6719.32)" fill="#E5E5E5" fill-opacity="0.75"/>
<rect width="0.830206" height="7.47185" transform="matrix(0 -1 -1 0 93.4717 6716)" fill="#E5E5E5" fill-opacity="0.75"/>
<rect width="0.830206" height="7.47185" transform="matrix(1 0 0 -1 270.119 6719.32)" fill="#E5E5E5" fill-opacity="0.75"/>
<rect width="0.830206" height="7.47185" transform="matrix(0 -1 -1 0 274.27 6716)" fill="#E5E5E5" fill-opacity="0.75"/>
<rect x="180.247" y="6721" width="0.830206" height="169.362" fill="#E5E5E5" fill-opacity="0.75"/>
<rect x="89.3848" y="6721" width="0.830206" height="169.362" fill="#E5E5E5" fill-opacity="0.75"/>
<rect x="270.183" y="6721" width="0.830206" height="169.362" fill="#E5E5E5" fill-opacity="0.75"/>
<rect width="0.830206" height="7.47185" transform="matrix(1 0 0 -1 180.247 6900.32)" fill="#E5E5E5" fill-opacity="0.75"/>
<rect width="0.830206" height="7.47185" transform="matrix(0 -1 -1 0 184.398 6897)" fill="#E5E5E5" fill-opacity="0.75"/>
<rect width="0.830206" height="7.47185" transform="matrix(1 0 0 -1 89.3848 6900.32)" fill="#E5E5E5" fill-opacity="0.75"/>
<rect width="0.830206" height="7.47185" transform="matrix(0 -1 -1 0 93.5356 6897)" fill="#E5E5E5" fill-opacity="0.75"/>
<rect width="0.830206" height="7.47185" transform="matrix(1 0 0 -1 270.183 6900.32)" fill="#E5E5E5" fill-opacity="0.75"/>
<rect width="0.830206" height="7.47185" transform="matrix(0 -1 -1 0 274.334 6897)" fill="#E5E5E5" fill-opacity="0.75"/>
<rect x="180.247" y="6903" width="0.830206" height="169.362" fill="#E5E5E5" fill-opacity="0.75"/>
<rect x="89.3848" y="6903" width="0.830206" height="169.362" fill="#E5E5E5" fill-opacity="0.75"/>
<rect x="270.183" y="6903" width="0.830206" height="169.362" fill="#E5E5E5" fill-opacity="0.75"/>
<rect width="0.830206" height="7.47185" transform="matrix(1 0 0 -1 180.247 7082.32)" fill="#E5E5E5" fill-opacity="0.75"/>
<rect width="0.830206" height="7.47185" transform="matrix(0 -1 -1 0 184.398 7079)" fill="#E5E5E5" fill-opacity="0.75"/>
<rect width="0.830206" height="7.47185" transform="matrix(1 0 0 -1 89.3848 7082.32)" fill="#E5E5E5" fill-opacity="0.75"/>
<rect width="0.830206" height="7.47185" transform="matrix(0 -1 -1 0 93.5356 7079)" fill="#E5E5E5" fill-opacity="0.75"/>
<rect width="0.830206" height="7.47185" transform="matrix(1 0 0 -1 270.183 7082.32)" fill="#E5E5E5" fill-opacity="0.75"/>
<rect width="0.830206" height="7.47185" transform="matrix(0 -1 -1 0 274.334 7079)" fill="#E5E5E5" fill-opacity="0.75"/>
<rect x="180.183" y="7085" width="0.830206" height="169.362" fill="#E5E5E5" fill-opacity="0.75"/>
<rect x="89.3208" y="7085" width="0.830206" height="169.362" fill="#E5E5E5" fill-opacity="0.75"/>
<rect x="270.119" y="7085" width="0.830206" height="169.362" fill="#E5E5E5" fill-opacity="0.75"/>
<rect width="0.830206" height="7.47185" transform="matrix(1 0 0 -1 180.183 7264.32)" fill="#E5E5E5" fill-opacity="0.75"/>
<rect width="0.830206" height="7.47185" transform="matrix(0 -1 -1 0 184.334 7261)" fill="#E5E5E5" fill-opacity="0.75"/>
<rect width="0.830206" height="7.47185" transform="matrix(1 0 0 -1 89.3208 7264.32)" fill="#E5E5E5" fill-opacity="0.75"/>
<rect width="0.830206" height="7.47185" transform="matrix(0 -1 -1 0 93.4717 7261)" fill="#E5E5E5" fill-opacity="0.75"/>
<rect width="0.830206" height="7.47185" transform="matrix(1 0 0 -1 270.119 7264.32)" fill="#E5E5E5" fill-opacity="0.75"/>
<rect width="0.830206" height="7.47185" transform="matrix(0 -1 -1 0 274.27 7261)" fill="#E5E5E5" fill-opacity="0.75"/>
<rect x="180.247" y="7266" width="0.830206" height="169.362" fill="#E5E5E5" fill-opacity="0.75"/>
<rect x="89.3848" y="7266" width="0.830206" height="169.362" fill="#E5E5E5" fill-opacity="0.75"/>
<rect x="270.183" y="7266" width="0.830206" height="169.362" fill="#E5E5E5" fill-opacity="0.75"/>
<rect width="0.830206" height="7.47185" transform="matrix(1 0 0 -1 180.247 7445.32)" fill="#E5E5E5" fill-opacity="0.75"/>
<rect width="0.830206" height="7.47185" transform="matrix(0 -1 -1 0 184.398 7442)" fill="#E5E5E5" fill-opacity="0.75"/>
<rect width="0.830206" height="7.47185" transform="matrix(1 0 0 -1 89.3848 7445.32)" fill="#E5E5E5" fill-opacity="0.75"/>
<rect width="0.830206" height="7.47185" transform="matrix(0 -1 -1 0 93.5356 7442)" fill="#E5E5E5" fill-opacity="0.75"/>
<rect width="0.830206" height="7.47185" transform="matrix(1 0 0 -1 270.183 7445.32)" fill="#E5E5E5" fill-opacity="0.75"/>
<rect width="0.830206" height="7.47185" transform="matrix(0 -1 -1 0 274.334 7442)" fill="#E5E5E5" fill-opacity="0.75"/>
<rect x="180.247" y="7448" width="0.830206" height="169.362" fill="#E5E5E5" fill-opacity="0.75"/>
<rect x="89.3848" y="7448" width="0.830206" height="169.362" fill="#E5E5E5" fill-opacity="0.75"/>
<rect x="270.183" y="7448" width="0.830206" height="169.362" fill="#E5E5E5" fill-opacity="0.75"/>
<rect width="0.830206" height="7.47185" transform="matrix(1 0 0 -1 180.247 7627.32)" fill="#E5E5E5" fill-opacity="0.75"/>
<rect width="0.830206" height="7.47185" transform="matrix(0 -1 -1 0 184.398 7624)" fill="#E5E5E5" fill-opacity="0.75"/>
<rect width="0.830206" height="7.47185" transform="matrix(1 0 0 -1 89.3848 7627.32)" fill="#E5E5E5" fill-opacity="0.75"/>
<rect width="0.830206" height="7.47185" transform="matrix(0 -1 -1 0 93.5356 7624)" fill="#E5E5E5" fill-opacity="0.75"/>
<rect width="0.830206" height="7.47185" transform="matrix(1 0 0 -1 270.183 7627.32)" fill="#E5E5E5" fill-opacity="0.75"/>
<rect width="0.830206" height="7.47185" transform="matrix(0 -1 -1 0 274.334 7624)" fill="#E5E5E5" fill-opacity="0.75"/>
<rect x="180.119" width="0.830206" height="169.362" fill="#E5E5E5" fill-opacity="0.75"/>
<rect x="89.2563" width="0.830206" height="169.362" fill="#E5E5E5" fill-opacity="0.75"/>
<rect x="270.054" width="0.830206" height="169.362" fill="#E5E5E5" fill-opacity="0.75"/>
<rect width="0.830206" height="7.47185" transform="matrix(1 0 0 -1 180.119 179.324)" fill="#E5E5E5" fill-opacity="0.75"/>
<rect width="0.830206" height="7.47185" transform="matrix(0 -1 -1 0 184.27 176.003)" fill="#E5E5E5" fill-opacity="0.75"/>
<rect width="0.830206" height="7.47185" transform="matrix(1 0 0 -1 89.2563 179.324)" fill="#E5E5E5" fill-opacity="0.75"/>
<rect width="0.830206" height="7.47185" transform="matrix(0 -1 -1 0 93.4072 176.003)" fill="#E5E5E5" fill-opacity="0.75"/>
<rect width="0.830206" height="7.47185" transform="matrix(1 0 0 -1 270.055 179.324)" fill="#E5E5E5" fill-opacity="0.75"/>
<rect width="0.830206" height="7.47185" transform="matrix(0 -1 -1 0 274.206 176.003)" fill="#E5E5E5" fill-opacity="0.75"/>
<rect x="180.183" y="181" width="0.830206" height="169.362" fill="#E5E5E5" fill-opacity="0.75"/>
<rect x="89.3203" y="181" width="0.830206" height="169.362" fill="#E5E5E5" fill-opacity="0.75"/>
<rect x="270.118" y="181" width="0.830206" height="169.362" fill="#E5E5E5" fill-opacity="0.75"/>
<rect width="0.830206" height="7.47185" transform="matrix(1 0 0 -1 180.183 360.324)" fill="#E5E5E5" fill-opacity="0.75"/>
<rect width="0.830206" height="7.47185" transform="matrix(0 -1 -1 0 184.333 357.003)" fill="#E5E5E5" fill-opacity="0.75"/>
<rect width="0.830206" height="7.47185" transform="matrix(1 0 0 -1 89.3203 360.324)" fill="#E5E5E5" fill-opacity="0.75"/>
<rect width="0.830206" height="7.47185" transform="matrix(0 -1 -1 0 93.4712 357.003)" fill="#E5E5E5" fill-opacity="0.75"/>
<rect width="0.830206" height="7.47185" transform="matrix(1 0 0 -1 270.119 360.324)" fill="#E5E5E5" fill-opacity="0.75"/>
<rect width="0.830206" height="7.47185" transform="matrix(0 -1 -1 0 274.27 357.003)" fill="#E5E5E5" fill-opacity="0.75"/>
<rect x="180.183" y="363" width="0.830206" height="169.362" fill="#E5E5E5" fill-opacity="0.75"/>
<rect x="89.3203" y="363" width="0.830206" height="169.362" fill="#E5E5E5" fill-opacity="0.75"/>
<rect x="270.118" y="363" width="0.830206" height="169.362" fill="#E5E5E5" fill-opacity="0.75"/>
<rect width="0.830206" height="7.47185" transform="matrix(1 0 0 -1 180.183 542.324)" fill="#E5E5E5" fill-opacity="0.75"/>
<rect width="0.830206" height="7.47185" transform="matrix(0 -1 -1 0 184.333 539.003)" fill="#E5E5E5" fill-opacity="0.75"/>
<rect width="0.830206" height="7.47185" transform="matrix(1 0 0 -1 89.3203 542.324)" fill="#E5E5E5" fill-opacity="0.75"/>
<rect width="0.830206" height="7.47185" transform="matrix(0 -1 -1 0 93.4712 539.003)" fill="#E5E5E5" fill-opacity="0.75"/>
<rect width="0.830206" height="7.47185" transform="matrix(1 0 0 -1 270.119 542.324)" fill="#E5E5E5" fill-opacity="0.75"/>
<rect width="0.830206" height="7.47185" transform="matrix(0 -1 -1 0 274.27 539.003)" fill="#E5E5E5" fill-opacity="0.75"/>
<path d="M15.3657 89H-1.07227V183.333H15.3657V89Z" fill="#10A0DE" fill-opacity="0.05"/>
<path d="M15.3657 341.983H-1.07227V436H15.3657V341.983Z" fill="#10A0DE" fill-opacity="0.05"/>
<path d="M96.3442 250.108V266.29H182.477V250.108H96.3442Z" fill="#10A0DE" fill-opacity="0.05"/>
<path d="M139.466 287.498C133.826 312.011 121.253 334.452 103.2 352.224C85.1468 369.997 62.3519 382.375 37.4517 387.927V402.783C66.2965 396.973 92.7723 382.95 113.591 362.454C134.41 341.959 148.655 315.894 154.557 287.498H139.466Z" fill="#10A0DE" fill-opacity="0.05"/>
<path d="M139.825 228.888C134.185 204.374 121.612 181.934 103.559 164.161C85.5057 146.389 62.7107 134.01 37.8105 128.459V113.651C66.6509 119.465 93.1213 133.491 113.936 153.986C134.75 174.481 148.991 200.543 154.891 228.936L139.825 228.888Z" fill="#10A0DE" fill-opacity="0.05"/>
<rect x="180" y="956" width="1" height="204" fill="#E5E5E5" fill-opacity="0.12"/>
<rect width="1" height="9" transform="matrix(1 0 0 -1 180 1172)" fill="#E5E5E5" fill-opacity="0.12"/>
<rect width="1" height="9" transform="matrix(0 -1 -1 0 185 1168)" fill="#E5E5E5" fill-opacity="0.12"/>
<rect x="10" y="956" width="1" height="204" fill="#E5E5E5" fill-opacity="0.12"/>
<rect width="1" height="9" transform="matrix(1 0 0 -1 10 1172)" fill="#E5E5E5" fill-opacity="0.12"/>
<rect width="1" height="9" transform="matrix(0 -1 -1 0 15 1168)" fill="#E5E5E5" fill-opacity="0.12"/>
<rect x="350" y="956" width="1" height="204" fill="#E5E5E5" fill-opacity="0.12"/>
<rect width="1" height="9" transform="matrix(1 0 0 -1 350 1172)" fill="#E5E5E5" fill-opacity="0.12"/>
<rect width="1" height="9" transform="matrix(0 -1 -1 0 355 1168)" fill="#E5E5E5" fill-opacity="0.12"/>
<rect x="180" y="736" width="1" height="204" fill="#E5E5E5" fill-opacity="0.12"/>
<rect width="1" height="9" transform="matrix(1 0 0 -1 180 952)" fill="#E5E5E5" fill-opacity="0.12"/>
<rect width="1" height="9" transform="matrix(0 -1 -1 0 185 948)" fill="#E5E5E5" fill-opacity="0.12"/>
<rect x="10" y="736" width="1" height="204" fill="#E5E5E5" fill-opacity="0.12"/>
<rect width="1" height="9" transform="matrix(1 0 0 -1 10 952)" fill="#E5E5E5" fill-opacity="0.12"/>
<rect width="1" height="9" transform="matrix(0 -1 -1 0 15 948)" fill="#E5E5E5" fill-opacity="0.12"/>
<rect x="350" y="736" width="1" height="204" fill="#E5E5E5" fill-opacity="0.12"/>
<rect width="1" height="9" transform="matrix(1 0 0 -1 350 952)" fill="#E5E5E5" fill-opacity="0.12"/>
<rect width="1" height="9" transform="matrix(0 -1 -1 0 355 948)" fill="#E5E5E5" fill-opacity="0.12"/>
<rect x="180" y="680" width="1" height="39" fill="#E5E5E5" fill-opacity="0.12"/>
<rect width="1" height="9" transform="matrix(1 0 0 -1 180 731)" fill="#E5E5E5" fill-opacity="0.12"/>
<rect width="1" height="9" transform="matrix(0 -1 -1 0 185 727)" fill="#E5E5E5" fill-opacity="0.12"/>
<rect x="10" y="680" width="1" height="39" fill="#E5E5E5" fill-opacity="0.12"/>
<rect width="1" height="9" transform="matrix(1 0 0 -1 10 731)" fill="#E5E5E5" fill-opacity="0.12"/>
<rect width="1" height="9" transform="matrix(0 -1 -1 0 15 727)" fill="#E5E5E5" fill-opacity="0.12"/>
<rect x="350" y="680" width="1" height="39" fill="#E5E5E5" fill-opacity="0.12"/>
<rect width="1" height="9" transform="matrix(1 0 0 -1 350 731)" fill="#E5E5E5" fill-opacity="0.12"/>
<rect width="1" height="9" transform="matrix(0 -1 -1 0 355 727)" fill="#E5E5E5" fill-opacity="0.12"/>
<path d="M167 3116.81V3148.03H336.887V3116.81H167Z" fill="#10A0DE" fill-opacity="0.05"/>
<path d="M255.532 3188.94H226.49C237.872 3243.72 265.346 3294 305.501 3333.54C345.656 3373.08 396.723 3400.14 452.362 3411.35V3382.72C404.317 3372.01 360.334 3348.13 325.501 3313.83C290.668 3279.54 266.409 3236.24 255.532 3188.94Z" fill="#10A0DE" fill-opacity="0.05"/>
<path d="M256.224 3075.87H227.182C238.581 3021.11 266.062 2970.85 306.216 2931.33C346.37 2891.81 397.428 2864.77 453.054 2853.56V2882.22C405.024 2892.92 361.052 2916.78 326.22 2951.05C291.389 2985.32 267.121 3028.6 256.224 3075.87Z" fill="#10A0DE" fill-opacity="0.05"/>
<path d="M15.7954 6138.29L15.7954 6173.27H202V6138.29H15.7954Z" fill="#10A0DE" fill-opacity="0.05"/>
<path d="M109.018 6219.12C96.8262 6272.12 69.6443 6320.63 30.6164 6359.05C-8.41143 6397.47 -57.6906 6424.23 -111.521 6436.23V6468.35C-49.1629 6455.79 8.07382 6425.47 53.0811 6381.17C98.0884 6336.86 128.883 6280.51 141.642 6219.12H109.018Z" fill="#10A0DE" fill-opacity="0.05"/>
<path d="M109.792 6092.42C97.6005 6039.42 70.4187 5990.91 31.3908 5952.49C-7.63704 5914.07 -56.9162 5887.31 -110.747 5875.3V5843.29C-48.3983 5855.86 8.82686 5886.18 53.8239 5930.49C98.821 5974.8 129.608 6031.14 142.363 6092.52L109.792 6092.42Z" fill="#10A0DE" fill-opacity="0.05"/>
<path d="M119 6904.29V6939.27H309.373V6904.29H119Z" fill="#10A0DE" fill-opacity="0.05"/>
<path d="M218.207 6985.12H185.664C198.418 7046.5 229.205 7102.85 274.202 7147.15C319.199 7191.46 376.424 7221.78 438.773 7234.35V7202.26C384.934 7190.26 335.647 7163.5 296.614 7125.07C257.58 7086.65 230.397 7038.12 218.207 6985.12Z" fill="#10A0DE" fill-opacity="0.05"/>
<path d="M218.983 6858.42H186.439C199.212 6797.05 230.008 6740.73 275.003 6696.45C319.999 6652.16 377.214 6621.85 439.548 6609.29V6641.41C385.727 6653.4 336.451 6680.14 297.42 6718.54C258.388 6756.94 231.194 6805.44 218.983 6858.42Z" fill="#10A0DE" fill-opacity="0.05"/>
</svg>
