<svg width="280" height="278" viewBox="0 0 280 278" fill="none" xmlns="http://www.w3.org/2000/svg">
<path d="M275.076 173.761C277.796 173.761 280 171.557 280 168.838V34.9462C280 15.7646 264.394 0.158936 245.213 0.158936H34.7878C15.6056 0.158936 0 15.7646 0 34.9462V209.405C0 228.586 15.6056 244.192 34.7878 244.192H60.305V257.932C60.305 268.912 69.2382 277.845 80.2178 277.845C85.534 277.845 90.5335 275.772 94.2966 272.01C98.0585 268.248 100.13 263.248 100.13 257.932V244.193H245.212C264.394 244.193 279.999 228.587 279.999 209.405V186.268C279.999 183.549 277.795 181.344 275.076 181.344C272.357 181.344 270.152 183.549 270.152 186.268V209.405C270.152 223.157 258.964 234.345 245.213 234.345H70.1526V215.985H87.9216C96.9604 215.985 104.314 208.632 104.314 199.593V82.2728C104.314 79.5537 102.109 77.3493 99.3902 77.3493C96.6711 77.3493 94.4666 79.5537 94.4666 82.2728V199.592C94.4666 203.201 91.531 206.137 87.9222 206.137H42.5359C38.9271 206.137 35.9915 203.201 35.9915 199.592V44.744C35.9915 41.139 38.9271 38.2067 42.5359 38.2067H87.9216C91.5305 38.2067 94.4661 41.139 94.4661 44.744V64.8433C94.4661 67.5624 96.6705 69.7668 99.3896 69.7668C102.109 69.7668 104.313 67.5624 104.313 64.8433V44.744C104.313 35.7091 96.9598 28.3591 87.9211 28.3591H42.5359C33.4972 28.3591 26.1439 35.7091 26.1439 44.744V199.592C26.1439 208.631 33.4972 215.984 42.5359 215.984H60.305V234.344H34.7878C21.0355 234.344 9.84758 223.156 9.84758 209.404V34.9462C9.84758 21.1945 21.0355 10.0065 34.7878 10.0065H245.213C258.964 10.0065 270.152 21.1945 270.152 34.9462V168.838C270.152 171.558 272.357 173.761 275.076 173.761ZM70.152 244.192H90.2831V257.932C90.2831 260.617 89.2352 263.145 87.3332 265.047C85.4306 266.95 82.903 267.998 80.2173 267.998C74.667 267.998 70.152 263.482 70.152 257.932V244.192Z" fill="#183458" fill-opacity="0.2"/>
<path d="M237.325 28.3596H136.647C127.339 28.3596 119.767 35.9322 119.767 45.2395V64.0979C119.767 73.4019 127.34 80.9712 136.647 80.9712H204.437C207.156 80.9712 209.361 78.7667 209.361 76.0477C209.361 73.3286 207.156 71.1241 204.437 71.1241H136.647C132.769 71.1241 129.615 67.9725 129.615 64.0984V45.2395C129.615 41.3616 132.77 38.2072 136.647 38.2072H237.325C241.203 38.2072 244.358 41.3621 244.358 45.2395V64.0979C244.358 67.972 241.203 71.1236 237.325 71.1236H220.85C218.13 71.1236 215.926 73.3281 215.926 76.0471C215.926 78.7662 218.13 80.9706 220.85 80.9706H237.325C246.633 80.9706 254.205 73.4013 254.205 64.0974V45.2395C254.205 35.9317 246.632 28.3596 237.325 28.3596Z" fill="#183458" fill-opacity="0.2"/>
<path d="M141.562 91.614H131.321C124.951 91.614 119.767 96.7973 119.767 103.168V113.409C119.767 119.78 124.951 124.963 131.321 124.963H141.562C147.933 124.963 153.116 119.78 153.116 113.409V103.168C153.116 96.7967 147.933 91.614 141.562 91.614ZM143.268 113.409C143.268 114.349 142.503 115.115 141.562 115.115H131.321C130.38 115.115 129.614 114.349 129.614 113.409V103.167C129.614 102.227 130.38 101.461 131.321 101.461H141.562C142.503 101.461 143.268 102.227 143.268 103.167V113.409Z" fill="#183458" fill-opacity="0.2"/>
<path d="M242.651 91.614H232.41C226.039 91.614 220.856 96.7973 220.856 103.168V113.409C220.856 119.78 226.039 124.963 232.41 124.963H242.651C249.022 124.963 254.205 119.78 254.205 113.409V103.168C254.205 96.7967 249.022 91.614 242.651 91.614ZM244.357 113.409C244.357 114.349 243.592 115.115 242.651 115.115H232.41C231.469 115.115 230.704 114.349 230.704 113.409V103.167C230.704 102.227 231.469 101.461 232.41 101.461H242.651C243.592 101.461 244.357 102.227 244.357 103.167V113.409Z" fill="#183458" fill-opacity="0.2"/>
<path d="M192.107 91.614H181.865C175.495 91.614 170.312 96.7973 170.312 103.168V113.409C170.312 119.78 175.495 124.963 181.865 124.963H192.107C198.477 124.963 203.66 119.78 203.66 113.409V103.168C203.66 96.7967 198.477 91.614 192.107 91.614ZM193.813 113.409C193.813 114.349 193.047 115.115 192.107 115.115H181.865C180.925 115.115 180.159 114.349 180.159 113.409V103.167C180.159 102.227 180.925 101.461 181.865 101.461H192.107C193.047 101.461 193.813 102.227 193.813 103.167V113.409Z" fill="#183458" fill-opacity="0.2"/>
<path d="M141.562 137.124H131.321C124.951 137.124 119.767 142.308 119.767 148.678V158.927C119.767 165.293 124.951 170.473 131.321 170.473H141.562C147.933 170.473 153.116 165.293 153.116 158.927V148.678C153.116 142.307 147.933 137.124 141.562 137.124ZM143.268 158.927C143.268 159.863 142.503 160.626 141.562 160.626H131.321C130.38 160.626 129.614 159.863 129.614 158.927V148.678C129.614 147.737 130.38 146.972 131.321 146.972H141.562C142.503 146.972 143.268 147.737 143.268 148.678V158.927Z" fill="#183458" fill-opacity="0.2"/>
<path d="M242.651 137.124H232.41C226.039 137.124 220.856 142.308 220.856 148.678V158.927C220.856 165.293 226.039 170.473 232.41 170.473H242.651C249.022 170.473 254.205 165.293 254.205 158.927V148.678C254.205 142.307 249.022 137.124 242.651 137.124ZM244.357 158.927C244.357 159.863 243.592 160.626 242.651 160.626H232.41C231.469 160.626 230.704 159.863 230.704 158.927V148.678C230.704 147.737 231.469 146.972 232.41 146.972H242.651C243.592 146.972 244.357 147.737 244.357 148.678V158.927Z" fill="#183458" fill-opacity="0.2"/>
<path d="M192.107 137.124H181.865C175.495 137.124 170.312 142.308 170.312 148.678V158.927C170.312 165.293 175.495 170.473 181.865 170.473H192.107C198.477 170.473 203.66 165.293 203.66 158.927V148.678C203.66 142.307 198.477 137.124 192.107 137.124ZM193.813 158.927C193.813 159.863 193.047 160.626 192.107 160.626H181.865C180.925 160.626 180.159 159.863 180.159 158.927V148.678C180.159 147.737 180.925 146.972 181.865 146.972H192.107C193.047 146.972 193.813 147.737 193.813 148.678V158.927Z" fill="#183458" fill-opacity="0.2"/>
<path d="M141.562 182.636H131.321C124.951 182.636 119.767 187.819 119.767 194.19V204.438C119.767 210.805 124.951 215.985 131.321 215.985H141.562C147.933 215.985 153.116 210.805 153.116 204.438V194.19C153.116 187.819 147.933 182.636 141.562 182.636ZM143.268 204.437C143.268 205.374 142.503 206.137 141.562 206.137H131.321C130.38 206.137 129.614 205.374 129.614 204.437V194.189C129.614 193.248 130.38 192.483 131.321 192.483H141.562C142.503 192.483 143.268 193.248 143.268 194.189V204.437Z" fill="#183458" fill-opacity="0.2"/>
<path d="M242.651 182.636H232.41C226.039 182.636 220.856 187.819 220.856 194.19V204.438C220.856 210.805 226.039 215.985 232.41 215.985H242.651C249.022 215.985 254.205 210.805 254.205 204.438V194.19C254.205 187.819 249.022 182.636 242.651 182.636ZM244.357 204.437C244.357 205.374 243.592 206.137 242.651 206.137H232.41C231.469 206.137 230.704 205.374 230.704 204.437V194.189C230.704 193.248 231.469 192.483 232.41 192.483H242.651C243.592 192.483 244.357 193.248 244.357 194.189V204.437Z" fill="#183458" fill-opacity="0.2"/>
<path d="M192.107 182.636H181.865C175.495 182.636 170.312 187.819 170.312 194.19V204.438C170.312 210.805 175.495 215.985 181.865 215.985H192.107C198.477 215.985 203.66 210.805 203.66 204.438V194.19C203.66 187.819 198.477 182.636 192.107 182.636ZM193.813 204.437C193.813 205.374 193.047 206.137 192.107 206.137H181.865C180.925 206.137 180.159 205.374 180.159 204.437V194.189C180.159 193.248 180.925 192.483 181.865 192.483H192.107C193.047 192.483 193.813 193.248 193.813 194.189V204.437Z" fill="#183458" fill-opacity="0.2"/>
</svg>
