<svg width="25" height="25" viewBox="0 0 25 25" fill="none" xmlns="http://www.w3.org/2000/svg">
<path d="M7.89967 0.942649C11.0389 -0.301954 14.6956 -0.215862 17.7511 1.22971C16.8804 1.09813 15.9948 1.19733 15.133 1.34227C12.7923 1.78198 10.5679 2.87753 8.82922 4.50505C7.16209 6.13514 5.99383 8.29796 5.66391 10.6119C5.44561 12.2515 5.6479 13.9713 6.38755 15.4636C7.14968 17.0295 8.49129 18.3136 10.1083 18.9764C11.6664 19.6323 13.4738 19.6251 15.0521 19.0396C17.4201 18.1751 19.1216 15.8409 19.3162 13.347C19.4386 11.7126 19.0389 9.9738 17.935 8.7202C16.8812 7.49307 15.3399 6.81719 13.7975 6.43247C13.7149 4.91931 14.4315 3.4244 15.568 2.44039C16.1992 1.87424 16.9825 1.51342 17.7924 1.28239L17.8539 1.26132C20.1726 2.3674 22.1428 4.19152 23.3981 6.43093C24.4736 8.33754 25.0345 10.5345 24.9789 12.7231C24.9683 15.5531 23.905 18.355 22.082 20.5189C20.3583 22.5825 17.9474 24.0669 15.3197 24.6613C12.6851 25.266 9.85047 25.0051 7.38478 23.8914C4.97205 22.8194 2.92799 20.956 1.62771 18.6639C0.546004 16.7591 -0.0262409 14.5629 0.0212954 12.3718C0.0264625 9.64177 1.00096 6.93283 2.70245 4.79802C4.06163 3.0934 5.86465 1.73803 7.89967 0.942649Z" fill="#FF5353"/>
<path d="M15.1329 1.34229C15.9948 1.19735 16.8804 1.09815 17.751 1.22973L17.8761 1.25081L17.7923 1.28242C16.9824 1.51345 16.1991 1.87426 15.568 2.44041C14.4315 3.42443 13.7148 4.91934 13.7975 6.4325C15.3398 6.81721 16.8811 7.4931 17.935 8.72023C19.0389 9.97382 19.4386 11.7126 19.3161 13.3471C19.1216 15.8409 17.4201 18.1752 15.052 19.0397C13.4738 19.6251 11.6664 19.6323 10.1082 18.9764C8.49124 18.3137 7.14962 17.0295 6.38749 15.4636C5.64784 13.9713 5.44555 12.2515 5.66385 10.6119C5.99377 8.29799 7.16203 6.13516 8.82916 4.50507C10.5679 2.87755 12.7922 1.782 15.1329 1.34229Z" fill="white"/>
</svg>
