<svg width="289" height="289" viewBox="0 0 289 289" fill="none" xmlns="http://www.w3.org/2000/svg">
<path d="M284.088 25.7865C286.801 25.7865 289 23.5872 289 20.8749V5.41254C289 2.70023 286.802 0.500977 284.088 0.500977H61.8278C59.1155 0.500977 56.9163 2.70023 56.9163 5.41254V227.672C56.9163 230.384 59.1155 232.584 61.8278 232.584H284.087C286.8 232.584 288.999 230.384 288.999 227.672V37.2462C288.999 34.5339 286.801 32.3346 284.087 32.3346C281.375 32.3346 279.176 34.5339 279.176 37.2462V121.396H259.67C256.957 121.396 254.759 123.595 254.759 126.307C254.759 129.02 256.957 131.219 259.67 131.219H279.176V222.761H138.849V198.996C138.849 196.284 136.65 194.085 133.938 194.085C131.226 194.085 129.026 196.284 129.026 198.996V222.761H66.7394V10.3241H129.027V163.634C129.027 166.347 131.226 168.546 133.938 168.546C136.651 168.546 138.85 166.347 138.85 163.634V131.219H226.273C228.986 131.219 231.185 129.02 231.185 126.307C231.185 123.595 228.987 121.396 226.273 121.396H138.849V10.3241H279.177V20.8749C279.177 23.5872 281.375 25.7865 284.088 25.7865Z" fill="#183458" fill-opacity="0.2"/>
<path d="M42.142 28.8468L25.9351 2.81681C25.0385 1.37673 23.4616 0.500977 21.7658 0.500977C20.0695 0.500977 18.4931 1.37673 17.5965 2.81681L1.3891 28.8468C0.446327 30.3612 0.398456 32.2676 1.26464 33.8271C2.13082 35.3866 3.77477 36.3541 5.55839 36.3541H16.8543V56.8925C16.8543 59.6048 19.0535 61.8041 21.7658 61.8041C24.4781 61.8041 26.6774 59.6048 26.6774 56.8925V36.3541H37.9733C39.7569 36.3541 41.4008 35.3871 42.267 33.8271C43.1332 32.2671 43.0853 30.3607 42.142 28.8468ZM14.4021 26.531L21.7653 14.7052L29.1284 26.531H14.4021Z" fill="#183458" fill-opacity="0.2"/>
<path d="M42.2664 199.258C41.4003 197.699 39.7563 196.732 37.9727 196.732H26.6768V69.9894C26.6768 67.2771 24.4776 65.0779 21.7653 65.0779C19.0529 65.0779 16.8537 67.2771 16.8537 69.9894V196.731H5.55839C3.77477 196.731 2.13082 197.698 1.26464 199.258C0.398456 200.818 0.446327 202.725 1.3891 204.238L17.596 230.268C18.4926 231.708 20.0689 232.584 21.7653 232.584C23.4621 232.584 25.0385 231.708 25.9345 230.268L42.1414 204.238C43.0853 202.723 43.1332 200.818 42.2664 199.258ZM21.7658 218.381L14.4021 206.555H29.1284L21.7658 218.381Z" fill="#183458" fill-opacity="0.2"/>
<path d="M286.684 263.566L260.654 247.359C259.14 246.416 257.233 246.369 255.674 247.234C254.114 248.101 253.147 249.745 253.147 251.528V262.824H92.7694V251.528C92.7694 249.745 91.8024 248.101 90.2429 247.234C88.6835 246.369 86.7776 246.416 85.2621 247.359L59.2321 263.566C57.792 264.462 56.9163 266.039 56.9163 267.735C56.9163 269.431 57.792 271.008 59.2321 271.904L85.2621 288.111C86.0551 288.605 86.9562 288.853 87.8578 288.853C88.6784 288.853 89.4995 288.648 90.2424 288.236C91.8024 287.369 92.7694 285.725 92.7694 283.942V272.646H253.147V283.942C253.147 285.725 254.115 287.369 255.673 288.236C256.417 288.648 257.238 288.853 258.058 288.853C258.96 288.853 259.861 288.605 260.654 288.111L286.684 271.904C288.124 271.008 289 269.431 289 267.735C289 266.038 288.124 264.462 286.684 263.566ZM82.9463 275.098L71.1204 267.735L82.9463 260.372V275.098ZM262.97 275.098V260.372L274.797 267.735L262.97 275.098Z" fill="#183458" fill-opacity="0.2"/>
</svg>
