<svg width="144" height="144" viewBox="0 0 144 144" fill="none" xmlns="http://www.w3.org/2000/svg">
<path d="M141.395 120.657H133.971V4.75247C133.971 3.3136 132.805 2.14697 131.366 2.14697H113.998C112.559 2.14697 111.392 3.3136 111.392 4.75247C111.392 6.19135 112.559 7.35797 113.998 7.35797H128.76V120.657H15.2395V7.35797H105.313C106.752 7.35797 107.918 6.19135 107.918 4.75247C107.918 3.3136 106.752 2.14697 105.313 2.14697H12.634C11.1952 2.14697 10.0285 3.3136 10.0285 4.75247V120.657H2.6055C1.16662 120.657 0 121.823 0 123.262V139.247C0 140.686 1.16662 141.853 2.6055 141.853H15.5149C16.9538 141.853 18.1204 140.686 18.1204 139.247C18.1204 137.808 16.9538 136.642 15.5149 136.642H5.211V125.868H138.789V136.642H24.1999C22.761 136.642 21.5944 137.808 21.5944 139.247C21.5944 140.686 22.761 141.853 24.1999 141.853H141.395C142.833 141.853 144 140.686 144 139.247V123.262C144 121.823 142.833 120.657 141.395 120.657Z" fill="#183458"/>
<path d="M66.4238 79.659C67.8627 79.659 69.0293 78.4923 69.0293 77.0534V15.3953C69.0293 13.9564 67.8627 12.7898 66.4238 12.7898H23.7871C22.3483 12.7898 21.1816 13.9564 21.1816 15.3953V112.619C21.1816 114.058 22.3483 115.225 23.7871 115.225H48.2129C48.2278 115.225 48.2421 115.227 48.257 115.227C48.2674 115.227 48.2778 115.225 48.288 115.225H66.4235C67.8624 115.225 69.029 114.058 69.029 112.619V85.7387C69.029 84.2999 67.8624 83.1332 66.4235 83.1332C64.9846 83.1332 63.818 84.2999 63.818 85.7387V110.014H50.46C49.2853 103.955 45.0378 87.309 32.4685 76.5357C44.5819 74.1597 54.4265 66.6571 61.2482 54.4857C62.2155 52.7602 63.0676 51.0384 63.818 49.359V77.0532C63.8183 78.4926 64.9849 79.659 66.4238 79.659ZM45.1214 110.014H26.3926V78.415C38.9789 87.312 43.6732 103.411 45.1214 110.014ZM56.7024 51.9384C49.6495 64.5226 39.4612 71.2842 26.3924 72.0677V18.0008H63.8177V31.4876C63.6231 32.7965 62.0495 42.3984 56.7024 51.9384Z" fill="#183458"/>
<path d="M120.213 12.7898H77.5767C76.1378 12.7898 74.9712 13.9564 74.9712 15.3953V112.619C74.9712 114.058 76.1378 115.225 77.5767 115.225H95.7291C95.7333 115.225 95.7378 115.226 95.7421 115.226C95.7483 115.226 95.7542 115.225 95.7603 115.225H120.213C121.652 115.225 122.819 114.058 122.819 112.619V15.3953C122.819 13.9561 121.652 12.7898 120.213 12.7898ZM93.5388 110.014H80.1819V49.3596H80.1822C80.9326 51.039 81.785 52.761 82.752 54.4862C89.5731 66.657 99.4174 74.16 111.531 76.5357C98.9613 87.3084 94.7135 103.955 93.5388 110.014ZM117.608 110.014H98.8777C100.326 103.409 105.021 87.3104 117.608 78.4144V110.014ZM117.608 72.068C104.586 71.2864 94.4227 64.5693 87.3715 52.07C81.9889 42.5283 80.381 32.8072 80.1819 31.4862V18.0008H117.608V72.068Z" fill="#183458"/>
</svg>
