<svg width="562" height="288" viewBox="0 0 562 288" fill="none" xmlns="http://www.w3.org/2000/svg">
<path d="M295.559 287.423H269.327V134.478H295.559V287.423Z" fill="#183458" fill-opacity="0.1"/>
<path d="M140.436 26.256H0V-9.53674e-06H140.436V26.256Z" fill="#183458" fill-opacity="0.1"/>
<path d="M562 26.256H424.656V-9.53674e-06H562V26.256Z" fill="#183458" fill-opacity="0.1"/>
<path d="M49.7322 60.6624H73.748C82.7428 100.397 102.79 136.772 131.573 165.581C160.356 194.39 196.697 214.457 236.396 223.46V247.549C190.416 238.117 148.216 215.379 115.032 182.155C81.8486 148.932 59.1426 106.687 49.7322 60.6624Z" fill="#183458" fill-opacity="0.1"/>
<path d="M494.024 60.6624H517.988C508.584 106.69 485.88 148.938 452.696 182.163C419.511 215.387 377.307 238.123 331.325 247.549V223.46C371.033 214.465 407.385 194.403 436.178 165.593C464.97 136.783 485.025 100.404 494.024 60.6624Z" fill="#183458" fill-opacity="0.1"/>
</svg>
