<svg width="29" height="25" viewBox="0 0 29 25" fill="none" xmlns="http://www.w3.org/2000/svg">
<path d="M22.7677 7.41089C22.5399 6.27293 22.1268 5.23567 21.5396 4.328C21.395 4.10433 21.0964 4.04038 20.8729 4.18498C20.6492 4.32964 20.5852 4.62814 20.7298 4.85181C21.2508 5.65702 21.6181 6.58173 21.8219 7.60002C21.9616 8.29783 22.0322 9.01586 22.0322 9.73429C22.0322 12.1017 21.2816 14.3497 19.8615 16.2352C18.5171 18.0202 16.6176 19.3683 14.5003 20.0434C12.3831 19.3683 10.4836 18.0201 9.13919 16.2352C7.71904 14.3497 6.96838 12.1017 6.96838 9.73429C6.96838 9.01592 7.03918 8.29788 7.1788 7.59996C7.73683 4.81114 9.55057 2.74382 12.1551 1.92814C14.8157 1.09495 17.7795 1.75425 19.7057 3.6081C19.8976 3.7928 20.2029 3.78691 20.3875 3.59507C20.5722 3.40323 20.5663 3.09793 20.3745 2.91323C18.1982 0.818545 14.8588 0.0708325 11.8668 1.00778C8.91574 1.93204 6.86235 4.26587 6.23313 7.41078C6.08099 8.17078 6.00391 8.95248 6.00391 9.73435C6.00391 12.3128 6.82168 14.7614 8.36877 16.8154C9.86493 18.8018 11.9927 20.2915 14.3603 21.0099C14.406 21.0237 14.4532 21.0307 14.5003 21.0307C14.5475 21.0307 14.5947 21.0237 14.6404 21.0099C17.0079 20.2914 19.1358 18.8018 20.6319 16.8154C22.1789 14.7614 22.9966 12.3128 22.9966 9.7344C22.9968 8.95254 22.9197 8.17084 22.7677 7.41089Z" fill="white"/>
<path d="M14.5005 4.08203C11.9101 4.08203 9.80273 6.1894 9.80273 8.77981C9.80273 9.72117 10.0802 10.6295 10.6053 11.4067C10.7543 11.6274 11.0542 11.6854 11.2748 11.5364C11.4955 11.3873 11.5535 11.0876 11.4045 10.8669C10.9876 10.2497 10.7672 9.52809 10.7672 8.77986C10.7672 6.72126 12.4419 5.04651 14.5005 5.04651C16.5591 5.04651 18.2339 6.72126 18.2339 8.77986C18.2339 10.8385 16.5591 12.5131 14.5005 12.5131C13.741 12.5131 13.0103 12.2865 12.3872 11.8579C12.1678 11.707 11.8676 11.7625 11.7166 11.9819C11.5657 12.2014 11.6211 12.5016 11.8406 12.6526C12.6252 13.1924 13.5449 13.4776 14.5006 13.4776C17.091 13.4776 19.1983 11.3703 19.1983 8.77986C19.1983 6.18946 17.0909 4.08203 14.5005 4.08203Z" fill="white"/>
<path d="M28.9372 23.6706L24.1663 15.259C24.0807 15.108 23.9205 15.0146 23.7469 15.0146H22.62C22.3536 15.0146 22.1378 15.2306 22.1378 15.4969C22.1378 15.7632 22.3536 15.9791 22.62 15.9791H23.4661L27.6899 23.4263H1.31016L5.53408 15.9791H6.38007C6.64639 15.9791 6.86231 15.7632 6.86231 15.4969C6.86231 15.2306 6.64639 15.0146 6.38007 15.0146H5.2532C5.0796 15.0146 4.91936 15.1079 4.83372 15.259L0.062766 23.6706C-0.0219118 23.8199 -0.0208356 24.0028 0.0655413 24.1512C0.151975 24.2995 0.310625 24.3907 0.482247 24.3907H28.5178C28.6895 24.3907 28.8482 24.2995 28.9345 24.1512C29.0209 24.003 29.0219 23.8199 28.9372 23.6706Z" fill="white"/>
</svg>
