<svg width="69" height="67" viewBox="0 0 69 67" fill="none" xmlns="http://www.w3.org/2000/svg">
<path d="M23.2502 35.7501H66.75C67.992 35.7501 69 34.7421 69 33.5001C69 32.2581 67.992 31.2501 66.75 31.2501H23.2502C22.0082 31.2501 21.0002 32.2581 21.0002 33.5001C21.0002 34.7421 22.0082 35.7501 23.2502 35.7501Z" fill="#10A0DE"/>
<path d="M35.2501 47.7499C35.8263 47.7499 36.402 47.5313 36.8403 47.0902C37.7192 46.2113 37.7192 44.7863 36.8403 43.9069L26.4302 33.4973L36.8403 23.0872C37.7192 22.2083 37.7192 20.7828 36.8403 19.9039C35.9609 19.025 34.5359 19.025 33.657 19.9039L21.6572 31.9043C20.7783 32.7832 20.7783 34.2081 21.6572 35.087L33.657 47.0869C34.0981 47.5313 34.6738 47.7499 35.2501 47.7499Z" fill="#10A0DE"/>
<path d="M32.9999 66.5002C46.6532 66.5002 58.7068 58.2863 63.7139 45.5718C64.1698 44.4199 63.6002 43.112 62.4449 42.6561C61.293 42.2062 59.9818 42.767 59.5259 43.9283C55.2028 54.9053 44.7899 62.0002 32.9999 62.0002C17.2862 62.0002 4.49974 49.2138 4.49974 33.5001C4.49974 17.7863 17.2862 4.99988 32.9999 4.99988C44.7899 4.99988 55.2028 12.0948 59.5259 23.0718C59.9851 24.2331 61.293 24.7939 62.4449 24.3441C63.6002 23.8881 64.1698 22.5802 63.7139 21.4283C58.7068 8.71381 46.6532 0.499878 32.9999 0.499878C14.8049 0.499878 -0.000263214 15.3051 -0.000263214 33.5001C-0.000263214 51.6951 14.8049 66.5002 32.9999 66.5002Z" fill="#10A0DE"/>
</svg>
