<svg width="29" height="29" viewBox="0 0 29 29" fill="none" xmlns="http://www.w3.org/2000/svg">
<path d="M18.5404 26.0906C12.0484 21.8581 5.68207 15.2614 1.92553 8.8749L1.60279 8.32628C0.993619 7.2906 0.903164 6.00888 1.36065 4.89781L2.39565 2.38454L3.14937 3.51255C3.2528 3.66729 3.42272 3.751 3.59587 3.751C3.69833 3.751 3.80182 3.72178 3.8934 3.66055C4.13968 3.49589 4.20595 3.16285 4.04129 2.91657L3.07381 1.46855L3.69273 1.17532C4.17355 0.947395 4.75888 1.10944 5.05415 1.55238L8.54815 6.79284C8.79494 7.16299 8.78757 7.65548 8.52985 8.01816L7.97342 8.80076L5.0333 4.40101C4.86865 4.15474 4.53554 4.08847 4.28932 4.25307C4.04305 4.41761 3.97678 4.75077 4.14138 4.99705L7.30823 9.73619L6.32743 11.1154C6.20662 11.2853 6.19506 11.5098 6.29804 11.6911C6.70676 12.4114 7.20367 13.1698 7.77483 13.9453C7.95065 14.1839 8.28636 14.2348 8.52481 14.0591C8.76333 13.8834 8.81425 13.5476 8.63861 13.3091C8.17019 12.6732 7.75512 12.0512 7.40174 11.4557L9.40416 8.63962C9.91778 7.91688 9.93245 6.93564 9.44064 6.19783L5.94664 0.957307C5.35831 0.0746165 4.19196 -0.24835 3.23326 0.205853L2.0532 0.765068C1.93261 0.822219 1.83774 0.92219 1.78693 1.04555L0.368871 4.48926C-0.215776 5.90891 -0.100172 7.54662 0.678186 8.87009L1.00093 9.41871C4.83625 15.9392 11.3326 22.6718 17.9547 26.9892C18.0451 27.0481 18.1467 27.0763 18.2471 27.0763C18.4223 27.0763 18.5941 26.9906 18.6969 26.8328C18.8587 26.5847 18.7885 26.2524 18.5404 26.0906Z" fill="white"/>
<path d="M28.0437 23.0525L22.8031 19.5594C22.0653 19.0676 21.0842 19.0825 20.3616 19.596L17.5452 21.5985C15.7616 20.54 13.7742 18.9492 11.9127 17.0865C11.0984 16.2722 10.3311 15.4293 9.63201 14.581C9.44357 14.3524 9.10553 14.3198 8.87693 14.5082C8.64827 14.6966 8.61576 15.0346 8.80403 15.2632C9.5249 16.138 10.3156 17.0066 11.1538 17.8449C13.1845 19.8769 15.3707 21.602 17.3098 22.7023C17.4912 22.8052 17.7156 22.7936 17.8855 22.6728L19.181 21.7516L26.6052 26.6092L24.104 27.6392C22.9923 28.097 21.71 28.0062 20.6741 27.3963L20.126 27.0737C19.8706 26.9234 19.5419 27.0085 19.3916 27.2638C19.2413 27.519 19.3265 27.8479 19.5817 27.9982L20.1299 28.3208C20.895 28.7712 21.7651 29.0001 22.6375 29C23.2745 29 23.9129 28.878 24.5123 28.6311L27.955 27.2134C28.0784 27.1626 28.1784 27.0675 28.2355 26.947L28.795 25.7657C29.2493 24.8071 28.9262 23.6407 28.0437 23.0525ZM27.8258 25.3066L27.5297 25.932L20.12 21.0841L20.983 20.4704C21.3457 20.2127 21.8381 20.2054 22.2081 20.4521L27.4486 23.9452C27.8915 24.2403 28.0537 24.8256 27.8258 25.3066Z" fill="white"/>
</svg>
