<svg width="69" height="67" viewBox="0 0 69 67" fill="none" xmlns="http://www.w3.org/2000/svg">
<path d="M45.7498 35.7501H2.25C1.008 35.7501 0 34.7421 0 33.5001C0 32.2581 1.008 31.2501 2.25 31.2501H45.7498C46.9918 31.2501 47.9998 32.2581 47.9998 33.5001C47.9998 34.7421 46.9918 35.7501 45.7498 35.7501Z" fill="#10A0DE"/>
<path d="M33.7499 47.7499C33.1737 47.7499 32.598 47.5313 32.1597 47.0902C31.2808 46.2113 31.2808 44.7863 32.1597 43.9069L42.5698 33.4973L32.1597 23.0872C31.2808 22.2083 31.2808 20.7828 32.1597 19.9039C33.0391 19.025 34.4641 19.025 35.343 19.9039L47.3428 31.9043C48.2217 32.7832 48.2217 34.2081 47.3428 35.087L35.343 47.0869C34.9019 47.5313 34.3262 47.7499 33.7499 47.7499Z" fill="#10A0DE"/>
<path d="M36.0001 66.5002C22.3468 66.5002 10.2932 58.2863 5.28614 45.5718C4.83021 44.4199 5.39985 43.112 6.55506 42.6561C7.70698 42.2062 9.0182 42.767 9.47413 43.9283C13.7972 54.9053 24.2101 62.0002 36.0001 62.0002C51.7138 62.0002 64.5003 49.2138 64.5003 33.5001C64.5003 17.7863 51.7138 4.99988 36.0001 4.99988C24.2101 4.99988 13.7972 12.0948 9.47413 23.0718C9.0149 24.2331 7.70698 24.7939 6.55506 24.3441C5.39985 23.8881 4.83021 22.5802 5.28614 21.4283C10.2932 8.71381 22.3468 0.499878 36.0001 0.499878C54.1951 0.499878 69.0003 15.3051 69.0003 33.5001C69.0003 51.6951 54.1951 66.5002 36.0001 66.5002Z" fill="#10A0DE"/>
</svg>
