<svg width="237" height="237" viewBox="0 0 237 237" fill="none" xmlns="http://www.w3.org/2000/svg">
<path d="M124.637 0H113.584V64.4294H124.637V0Z" fill="#10A0DE" fill-opacity="0.15"/>
<path d="M124.637 172.787H113.584V237H124.637V172.787Z" fill="#10A0DE" fill-opacity="0.15"/>
<path d="M0 110.036L0 121.089H59.2105V110.036H0Z" fill="#10A0DE" fill-opacity="0.15"/>
<path d="M179.086 110.036V121.089H237V110.036H179.086Z" fill="#10A0DE" fill-opacity="0.15"/>
<path d="M30.856 135.573H20.7341C24.7011 154.966 34.2766 172.766 48.2718 186.764C62.2669 200.762 80.0653 210.342 99.4571 214.313V204.174C82.712 200.383 67.3825 191.928 55.2422 179.788C43.102 167.648 34.6472 152.318 30.856 135.573Z" fill="#10A0DE" fill-opacity="0.15"/>
<path d="M208.08 135.573C204.288 152.316 195.834 167.643 183.696 179.781C171.557 191.92 156.23 200.374 139.488 204.166V214.313C158.882 210.345 176.684 200.767 190.683 186.768C204.681 172.77 214.259 154.968 218.227 135.573H208.08Z" fill="#10A0DE" fill-opacity="0.15"/>
<path d="M31.097 95.5428H20.9751C24.9479 76.1562 34.526 58.363 48.5207 44.3713C62.5154 30.3795 80.3107 20.8052 99.6981 16.8364V26.9832C82.9583 30.7712 67.6325 39.2198 55.4928 51.3522C43.353 63.4847 34.8951 78.8053 31.097 95.5428Z" fill="#10A0DE" fill-opacity="0.15"/>
<path d="M208.321 95.5428C204.529 78.8003 196.075 63.4733 183.937 51.3347C171.798 39.1961 156.471 30.7419 139.729 26.95V16.8364C159.12 20.8075 176.919 30.3868 190.914 44.3849C204.909 58.383 214.485 76.1834 218.451 95.576L208.321 95.5428Z" fill="#10A0DE" fill-opacity="0.15"/>
</svg>
